<?xml version="1.0" encoding="UTF-8"?>
<!DOCTYPE svg PUBLIC "-//W3C//DTD SVG 1.1//EN" "http://www.w3.org/Graphics/SVG/1.1/DTD/svg11.dtd">
<!-- Creator: CorelDRAW X7 -->
<svg xmlns="http://www.w3.org/2000/svg" xml:space="preserve" width="19.4752mm" height="15.7418mm" version="1.1" shape-rendering="geometricPrecision" text-rendering="geometricPrecision" image-rendering="optimizeQuality" fill-rule="evenodd" clip-rule="evenodd"
viewBox="0 0 3208 2593"
 xmlns:xlink="http://www.w3.org/1999/xlink">
 <g id="Layer_x0020_1">
  <metadata id="CorelCorpID_0Corel-Layer"/>
  <g id="_1674471536">
   <path fill="#440203" fill-rule="nonzero" d="M87 1160c-12,-25 -25,-56 -38,-92 -30,-83 -54,-185 -48,-280 7,-128 60,-242 192,-306l1 0c11,-5 23,-10 35,-14 73,-26 136,-28 200,-29 21,0 42,0 63,-3 104,-10 211,-82 317,-154 41,-28 81,-55 133,-86 125,-75 263,-130 406,-162 142,-32 290,-42 436,-28 135,13 288,50 431,105 131,52 257,121 355,206 142,122 244,264 309,421 69,164 98,343 95,533 -3,117 -4,241 14,352 16,95 47,182 107,247 46,51 77,102 94,153 26,76 23,149 0,216 -22,60 -60,113 -108,157 -63,58 -147,104 -232,133 -115,39 -245,58 -376,63 -153,5 -307,-9 -441,-31 -157,-25 -308,-69 -453,-126 -144,-56 -282,-125 -414,-201 -233,-133 -457,-294 -651,-486 -173,-171 -320,-367 -427,-588zm271 -203c7,21 16,42 25,60 90,186 215,352 363,498 170,169 371,313 582,434 120,68 244,130 371,180 126,49 254,87 384,108 116,19 250,31 380,26 99,-3 196,-17 280,-45 45,-16 87,-38 116,-64 10,-9 17,-18 20,-25 0,0 -1,1 -1,0 -3,-9 -11,-21 -25,-36 -110,-119 -164,-264 -189,-417 -23,-137 -21,-278 -18,-411 2,-143 -19,-278 -70,-399 -47,-112 -120,-214 -221,-301 -67,-58 -160,-109 -260,-148 -115,-45 -237,-74 -342,-84 -111,-11 -224,-3 -333,22 -109,24 -214,66 -310,123 -33,20 -75,48 -117,77 -140,94 -281,189 -468,208 -30,3 -60,4 -91,4 -36,1 -73,2 -94,9l-4 2 0 0c-4,2 -6,13 -7,28 -3,46 11,103 29,151z"/>
   <path fill="#2CC68F" fill-rule="nonzero" d="M235 1089c-62,-128 -143,-398 50,-467 70,-25 149,-14 223,-22 195,-20 350,-162 518,-263 221,-132 486,-192 742,-167 229,22 520,120 695,271 250,216 353,504 347,827 -5,251 -6,529 164,714 165,180 4,329 -178,391 -222,76 -512,63 -738,26 -287,-46 -559,-163 -812,-307 -418,-240 -802,-569 -1011,-1003z"/>
   <g>
    <path fill="#87F1CB" fill-rule="nonzero" d="M2463 441c28,24 54,49 78,76 -115,75 -274,88 -403,33 -156,-66 -268,-212 -320,-374 220,30 482,125 645,265z"/>
   </g>
   <g>
    <path fill="#87F1CB" fill-rule="nonzero" d="M1026 337c195,-117 425,-177 653,-172 11,42 10,87 -5,128 -23,67 -78,118 -135,160 -72,51 -152,93 -239,110 -87,16 -180,7 -256,-38 -50,-30 -90,-72 -125,-119 35,-24 71,-47 107,-69z"/>
   </g>
   <g>
    <path fill="#87F1CB" fill-rule="nonzero" d="M2213 782c-89,19 -162,84 -220,154 -58,70 -107,156 -100,246 8,88 68,162 131,222 111,104 243,186 385,239 48,18 100,33 150,19 53,-14 93,-60 113,-111 21,-51 24,-108 23,-163 -2,-147 -9,-310 -88,-440 -70,-115 -261,-193 -394,-166z"/>
   </g>
   <g>
    <path fill="#87F1CB" fill-rule="nonzero" d="M1192 778c78,-42 156,-84 233,-126 61,-33 107,-74 178,-63 124,20 191,130 194,247 3,95 -29,188 -66,275 -43,105 -112,219 -224,231 -50,5 -98,-12 -143,-32 -72,-33 -139,-75 -198,-126 -43,-37 -83,-79 -106,-131 -24,-51 -29,-113 -2,-164 27,-52 82,-83 134,-111z"/>
   </g>
   <g>
    <path fill="#87F1CB" fill-rule="nonzero" d="M508 600c74,-8 142,-33 207,-67 29,29 56,60 78,94 58,87 90,195 72,298 -19,103 -93,199 -193,228 -52,15 -107,12 -161,9 -60,-3 -120,-6 -181,-9l176 -553c1,0 1,0 2,0z"/>
   </g>
   <g>
    <path fill="#87F1CB" fill-rule="nonzero" d="M2195 2173c4,-203 -89,-411 -256,-526 -167,-114 -408,-121 -570,1 -24,19 -47,42 -51,72 -2,20 5,40 13,58 40,89 109,165 194,212l670 183z"/>
   </g>
   <g>
    <path fill="#1B8962" fill-rule="nonzero" d="M285 622c60,-22 127,-17 192,-20 5,21 10,42 16,63 125,428 489,742 868,976 302,185 634,339 988,367 180,14 362,-5 539,-44 19,-4 39,-10 59,-15 8,11 17,22 27,33 165,180 4,329 -178,391 -222,76 -512,63 -738,26 -287,-46 -559,-163 -812,-307 -418,-240 -802,-569 -1011,-1003 -62,-128 -143,-398 50,-467z"/>
   </g>
   <g>
    <path fill="#FEFEFE" fill-rule="nonzero" fill-opacity="0.188235" d="M285 622c70,-25 149,-14 223,-22 195,-20 350,-162 518,-263 221,-132 486,-192 742,-167 229,22 520,120 695,271 64,56 119,116 165,181 -71,-13 -144,-18 -215,-17 -343,5 -672,130 -984,272 -312,143 -617,306 -948,395 -41,11 -83,20 -125,28 -45,-67 -85,-138 -121,-211 -62,-128 -143,-398 50,-467z"/>
   </g>
  </g>
 </g>
</svg>
