<?xml version="1.0" encoding="UTF-8"?>
<!DOCTYPE svg PUBLIC "-//W3C//DTD SVG 1.1//EN" "http://www.w3.org/Graphics/SVG/1.1/DTD/svg11.dtd">
<!-- Creator: CorelDRAW X7 -->
<svg xmlns="http://www.w3.org/2000/svg" xml:space="preserve" width="27.0621mm" height="19.5951mm" version="1.1" shape-rendering="geometricPrecision" text-rendering="geometricPrecision" image-rendering="optimizeQuality" fill-rule="evenodd" clip-rule="evenodd"
viewBox="0 0 6859 4966"
 xmlns:xlink="http://www.w3.org/1999/xlink">
 <g id="Layer_x0020_1">
  <metadata id="CorelCorpID_0Corel-Layer"/>
  <g id="_1726316848">
   <path fill="#440203" fill-rule="nonzero" d="M3735 370c41,9 165,36 289,63 367,80 719,157 1101,295 194,67 369,138 524,214 164,79 311,164 438,252l0 1c212,148 381,311 508,488 129,183 214,380 254,593l0 0c13,57 13,112 0,163 -20,78 -63,139 -131,182l-59 38 -71 2c-18,0 -36,-1 -55,-4l0 1c-7,-1 -15,-3 -23,-5 -24,-4 -46,-12 -68,-23l-1 -1c-106,-36 -205,-66 -297,-90 -89,-22 -167,-37 -235,-45l0 0c-86,-8 -153,-5 -201,9 -23,7 -39,17 -49,29 -12,16 -20,43 -24,81 -10,93 10,222 59,384l0 0c29,93 66,194 111,302 46,109 103,230 170,363 35,70 40,146 27,207l-1 1c-9,40 -25,78 -48,109 -40,55 -96,92 -166,106l-2 0c-62,11 -124,3 -183,-32l0 -1c-145,-84 -274,-156 -388,-212 -106,-52 -199,-91 -281,-114 -24,-5 -48,-11 -73,-15 -18,-4 -40,-7 -65,-10 -47,-3 -81,2 -102,14 -13,7 -23,21 -32,42 -16,47 -24,113 -22,197 2,96 17,215 45,356 6,30 12,56 20,85 15,54 15,118 0,171 -16,53 -46,100 -93,137 -62,48 -136,68 -220,49 -52,-12 -104,-39 -149,-88l-65 -67 -64 -65c-25,-25 -50,-50 -75,-74 -26,-23 -49,-44 -69,-60 -55,-44 -101,-71 -138,-81l-9 -3c-2,0 -1,-1 1,-3l0 -3c-13,12 -29,44 -47,94l-1 -1c-11,33 -22,75 -32,127 -12,58 -21,118 -27,178l-5 50 -22 42c-90,175 -214,206 -366,127 -109,-56 -144,-155 -186,-275 -19,-54 -41,-117 -59,-149 -9,-8 -17,-15 -25,-23 -43,-42 -98,-70 -164,-86 -30,-7 -61,-11 -94,-13 -37,-2 -75,-1 -114,3l-58 6 -40 -15c-18,-5 -36,-10 -65,-26l-1 -1c-170,-96 -197,-175 -90,-364l32 -56 131 -80 65 -38c50,-31 96,-61 138,-88 42,-28 84,-57 127,-87 62,-45 120,-90 175,-137 56,-47 108,-94 155,-140l3 -3c193,-183 338,-376 435,-580 95,-199 145,-409 149,-628l0 -8c1,-29 1,-56 0,-82 -1,-27 -3,-53 -6,-78l-2 -13c-8,-107 -24,-209 -47,-305 -23,-96 -55,-190 -95,-284l1 0c-59,-134 -107,-239 -143,-315 -35,-73 -63,-126 -84,-159 -6,-10 -17,-24 -28,-37 -58,-73 -108,-134 -97,-251 15,-177 113,-271 366,-249l12 1 21 5zm1220 833c-296,-107 -593,-177 -900,-245 30,65 62,138 97,217l1 1c49,115 89,236 120,364 31,127 51,256 61,386l0 0c4,37 7,74 8,111 2,42 2,83 0,124 -7,292 -72,569 -197,830 -123,259 -304,502 -544,729 -59,57 -119,112 -181,164 -50,42 -101,83 -154,123 36,22 70,47 102,75 49,-83 107,-148 176,-194 123,-84 261,-104 414,-60 58,15 117,40 176,73 3,-119 19,-223 50,-311l2 -4c53,-141 139,-245 259,-313 111,-62 243,-87 395,-76l13 1c27,3 60,8 100,16 31,6 66,13 104,23l8 2c64,17 131,41 202,71 -21,-58 -40,-112 -56,-165l0 -1c-69,-228 -95,-422 -79,-581 13,-134 56,-248 127,-340 75,-97 176,-165 303,-203 114,-35 247,-44 400,-29l3 0c79,9 166,25 258,47 -12,-21 -26,-41 -40,-62 -93,-131 -221,-253 -384,-366l-1 0c-108,-75 -231,-147 -368,-213 -145,-70 -302,-134 -472,-193l-3 -1zm-1132 3108c3,-4 9,-9 4,-6l-4 3 0 3zm-1228 64l1 0 -1 0z"/>
   <path fill="#A447DE" d="M3680 616c470,107 904,185 1360,349 365,127 666,273 903,437 375,262 594,570 659,927 8,39 2,65 -20,79 -8,0 -15,-1 -20,-3 -6,0 -9,-2 -10,-6 -8,-2 -15,-4 -21,-6 -237,-82 -435,-132 -594,-150 -506,-52 -667,224 -484,828 61,199 160,434 297,705 15,31 -1,70 -20,59 -298,-175 -537,-298 -732,-353 -64,-15 -122,-26 -176,-33 -204,-15 -338,60 -399,225 -53,150 -49,380 13,690 7,31 15,63 24,97 8,31 0,66 -35,29 -47,-49 -90,-93 -130,-133 -58,-60 -114,-112 -167,-156 -83,-67 -161,-109 -233,-128 -161,-49 -279,31 -356,242 -35,96 -60,218 -74,368 -53,101 -95,-227 -201,-356 -13,-10 -25,-20 -36,-31 -77,-74 -171,-124 -281,-150 -88,-20 -185,-25 -290,-15 -16,-6 -24,1 -11,-24 49,-29 96,-57 143,-84 98,-61 191,-123 279,-185 133,-96 252,-197 359,-301 432,-411 653,-873 662,-1388 4,-70 1,-138 -7,-204 -19,-238 -73,-461 -162,-669 -116,-264 -197,-434 -244,-509 -56,-89 -169,-166 4,-151z"/>
   <path fill="#440203" fill-rule="nonzero" d="M2874 2804c22,49 38,82 52,111 89,186 135,281 24,424 -112,143 -220,122 -441,78l-63 -12c7,42 21,96 41,160l125 331 -429 91 -129 -112 1 34 -14 43c-61,179 -174,226 -333,172l0 0c-111,-38 -143,-105 -183,-190 -6,-13 -10,-24 -13,-32l-1 -1 -20 -18c-10,-1 -20,-1 -29,-1 -12,1 -24,3 -37,6l-62 13 -269 -79 26 -245 0 0c15,-175 21,-341 19,-497 -2,-157 -12,-315 -31,-474l1 0c-52,-394 -161,-766 -328,-1117 -167,-353 -393,-684 -676,-993l0 0 -6 -6c-48,-52 -83,-91 -95,-181 -23,-182 47,-276 262,-304 312,-40 1084,156 1776,591 478,301 932,718 1193,1253l0 0c230,463 177,680 -18,777 -162,81 -335,5 -512,-73 -76,-34 -74,-109 -115,-88 -53,26 136,43 280,331l4 8zm-517 90l0 0c-247,-541 -189,-782 8,-881 125,-63 259,-37 393,13 -219,-419 -591,-754 -986,-1002 -330,-208 -667,-354 -941,-437 159,220 295,448 408,686 189,398 313,822 371,1271l1 3c20,167 31,343 33,527 2,109 0,217 -5,324l26 9c9,-12 19,-23 30,-33 69,-66 151,-99 244,-100 1,-9 2,-19 4,-28l2 -9c22,-104 71,-187 147,-249 72,-57 160,-89 265,-94zm636 -721c34,-17 10,-15 -34,-17 6,18 11,29 34,17z"/>
   <path fill="#A447DE" d="M2644 2909c154,337 195,312 -187,240 -32,-2 -62,-3 -88,-3 -99,5 -158,53 -177,143 -14,81 5,201 56,357 7,19 15,41 24,64l-19 4c-27,-24 -51,-46 -71,-64 -34,-28 -66,-51 -94,-71 -47,-26 -87,-43 -118,-49 -82,-14 -135,37 -158,150 -10,51 -14,114 -11,192 -20,60 -56,-105 -123,-168 -7,-4 -13,-7 -20,-11 -40,-37 -89,-58 -147,-63 -43,-3 -90,0 -139,10l-4 -1 4 -41c30,-355 26,-695 -12,-1022 -110,-843 -467,-1594 -1069,-2251 -39,-43 -59,-61 7,-69 459,-60 2127,510 2710,1704 611,1230 -1161,-642 -364,949z"/>
  </g>
 </g>
</svg>
