<?xml version="1.0" encoding="UTF-8"?>
<!DOCTYPE svg PUBLIC "-//W3C//DTD SVG 1.1//EN" "http://www.w3.org/Graphics/SVG/1.1/DTD/svg11.dtd">
<!-- Creator: CorelDRAW X7 -->
<svg xmlns="http://www.w3.org/2000/svg" xml:space="preserve" width="28.9271mm" height="17.9936mm" version="1.1" shape-rendering="geometricPrecision" text-rendering="geometricPrecision" image-rendering="optimizeQuality" fill-rule="evenodd" clip-rule="evenodd"
viewBox="0 0 8311 5170"
 xmlns:xlink="http://www.w3.org/1999/xlink">
 <g id="Layer_x0020_1">
  <metadata id="CorelCorpID_0Corel-Layer"/>
  <g id="_1449473568">
   <path fill="#440203" fill-rule="nonzero" d="M812 3400c78,191 173,386 283,586 50,90 104,182 162,276 269,-453 493,-861 671,-1225 226,-459 385,-855 476,-1185l0 -3c27,-96 49,-189 64,-279 15,-93 25,-183 28,-270 6,-142 -12,-271 -51,-381 -38,-106 -96,-192 -171,-251 -71,-57 -161,-90 -265,-95 -91,-3 -195,14 -311,55l-3 1c-142,48 -274,122 -396,220 -127,102 -246,233 -357,392l-2 2c-239,335 -352,671 -366,1017 -14,357 75,734 238,1140l0 0zm-217 864c-126,-226 -230,-442 -314,-649l0 -1c-193,-477 -297,-931 -279,-1377 19,-456 163,-893 469,-1323l0 -1c141,-202 297,-372 468,-510 175,-141 365,-246 568,-316 185,-66 361,-93 524,-86 232,10 434,86 598,216 161,126 282,301 357,511 63,176 92,377 83,594 -5,116 -17,230 -36,342 -19,116 -45,230 -77,342l-1 0c-100,363 -271,790 -513,1282 -241,492 -549,1042 -922,1649l-1 0 -3 3c-61,100 -84,137 -239,142l-9 1c-88,0 -134,-19 -173,-52l-28 -12 -48 -71c-159,-233 -301,-461 -424,-684z"/>
   <path fill="#89D8F6" d="M547 3508c161,397 398,823 709,1279 16,7 8,17 19,-1 745,-1212 1214,-2165 1405,-2858 60,-209 94,-414 103,-617 30,-728 -451,-1214 -1180,-954 -347,119 -645,359 -896,720 -547,766 -517,1547 -160,2431z"/>
   <path fill="#440203" fill-rule="nonzero" d="M3150 5142c-167,7 -346,13 -536,18 -182,4 -373,7 -573,9l-55 1 -19 -7 -1 0 -4 1c-25,2 -52,1 -82,-3 -31,-4 -59,-11 -86,-22l-418 -162 322 -311c193,-186 378,-361 554,-524 174,-160 351,-319 532,-477l9 -8 132 -105 158 -129c1135,-927 2499,-2041 4041,-1930l5 1c160,15 302,43 427,83 137,45 255,104 356,178l2 2c72,54 135,117 190,191l1 -1c53,71 96,148 130,233 86,206 99,424 40,652 -54,207 -167,418 -340,634 -161,209 -354,399 -578,568 -223,168 -476,317 -759,445l-4 2c-550,239 -1123,391 -1706,490 -572,97 -1156,143 -1736,171l-2 0zm-534 -555c170,-4 340,-10 509,-17 558,-27 1119,-72 1669,-165 539,-92 1066,-231 1567,-448l-1 -1c247,-112 464,-239 651,-380 186,-140 343,-295 473,-463l2 -4c123,-154 201,-294 234,-420 27,-104 22,-201 -15,-290l-2 -6c-15,-37 -33,-70 -56,-100l0 -1c-21,-28 -47,-54 -79,-78l0 0c-49,-37 -112,-67 -187,-91 -86,-28 -185,-47 -298,-58l0 0c-1316,-95 -2584,941 -3638,1802 -97,79 -194,158 -292,237 -160,139 -330,293 -512,460l-25 23zm-699 5l2 0 -2 0 0 0z"/>
   <path fill="#89D8F6" d="M3139 4856c-343,15 -710,24 -1100,27l-10 -4c-29,-4 -58,-4 -89,-1 -16,1 -30,-1 -43,-6 375,-362 733,-692 1076,-991 44,-35 87,-71 131,-106 1125,-916 2500,-2104 3999,-1996 275,26 487,95 638,206 104,79 180,180 229,304 123,296 37,629 -259,999 -292,379 -702,689 -1232,930 -1052,457 -2203,583 -3340,638z"/>
   <path fill="#CBF3EF" d="M6440 1810c-16,1 -36,4 -60,10 -136,96 -397,341 -784,735 -448,453 -728,754 -840,905 -70,25 -124,49 -162,71 -64,27 -221,104 -473,229 -197,102 -343,176 -435,222 -37,16 -65,31 -86,45 -2,6 -1,14 2,23 13,5 23,9 30,12 15,-2 24,-6 27,-12l954 -455c599,-266 1229,-486 1889,-660 287,-82 556,-153 809,-215 45,-8 84,-17 117,-26 55,-24 31,-30 -72,-18 -71,10 -177,24 -320,43 -274,49 -525,107 -754,174 29,-33 73,-80 134,-138 72,-69 152,-150 241,-242 89,-92 191,-179 305,-261 109,-85 156,-130 143,-135 -15,1 -32,6 -50,14 -100,43 -264,176 -495,400 -188,173 -314,303 -378,390 -58,15 -113,30 -165,48 -148,53 -369,139 -662,255 -194,74 -354,138 -481,193 54,-61 142,-161 265,-300 236,-259 408,-438 515,-539 84,-79 230,-212 439,-400 153,-141 269,-264 347,-368zm-3163 2809l0 0c-126,17 -268,36 -426,56 -362,45 -662,102 -900,173 -5,13 -9,23 -11,30 31,-3 60,-3 89,1l10 4c468,-85 868,-152 1202,-200 191,-30 357,-51 496,-63 560,-71 1078,-92 1553,-62 44,2 91,6 141,11 49,-11 100,-25 151,-42 -63,-10 -131,-18 -203,-24 -211,-27 -432,-35 -664,-26 -309,6 -623,32 -941,79 -127,17 -292,38 -497,63zm168 -283l0 0c342,-89 596,-143 760,-161 404,-57 713,-100 927,-129 359,-38 674,-56 943,-55l17 -16c-642,-5 -1257,37 -1847,126 -256,42 -503,90 -742,146 -374,92 -722,206 -1045,341l-4 9c2,5 3,13 3,24 204,-62 431,-126 682,-192 110,-32 212,-63 306,-93z"/>
   <path fill="#CBF3EF" d="M1125 1186c-27,-75 -44,-108 -51,-99 -12,10 -17,23 -16,39 -2,33 8,74 30,124 24,54 61,121 112,201 77,117 139,197 185,242 -11,37 -18,75 -22,114 -17,99 -39,251 -68,457 -12,134 -24,247 -38,339 -27,-37 -73,-95 -140,-173 -135,-151 -222,-258 -260,-322 -25,-32 -52,-75 -80,-127 -28,-41 -60,-95 -94,-160 -58,-98 -117,-172 -176,-222 -6,13 -10,29 -13,46 23,76 108,217 256,421 20,23 42,48 65,76 210,285 355,464 435,536 -3,44 -5,83 -7,116 1,37 0,142 0,314 3,192 11,310 24,352 2,5 8,5 17,1l21 -25c7,-9 12,-16 14,-22l-8 -650c17,-405 92,-840 222,-1305 59,-235 123,-453 191,-655 6,-61 -45,33 -151,283 -72,193 -131,372 -177,537 -10,-23 -32,-54 -65,-93 -24,-43 -59,-93 -105,-148 -43,-62 -77,-128 -101,-197zm177 3411l0 0c10,-25 24,-50 40,-73 210,-532 376,-935 499,-1208 92,-196 185,-384 278,-564 130,-234 268,-455 413,-663 11,-37 22,-74 33,-111 -147,182 -279,373 -395,574 -8,20 -18,40 -30,62 -122,225 -234,451 -334,677 -63,140 -161,360 -294,659 -113,259 -187,471 -223,637 2,4 7,8 13,10zm992 -2945l0 0c-288,475 -516,920 -684,1337 -197,473 -311,890 -342,1252l7 -2c2,4 7,4 16,0 41,-141 83,-298 125,-473 94,-352 175,-605 243,-758 117,-287 212,-506 287,-656 113,-259 230,-484 350,-676l-2 -24z"/>
  </g>
 </g>
</svg>
