<?xml version="1.0" encoding="UTF-8"?>
<!DOCTYPE svg PUBLIC "-//W3C//DTD SVG 1.1//EN" "http://www.w3.org/Graphics/SVG/1.1/DTD/svg11.dtd">
<!-- Creator: CorelDRAW X7 -->
<svg xmlns="http://www.w3.org/2000/svg" xml:space="preserve" width="21.4776mm" height="3.2343mm" version="1.1" shape-rendering="geometricPrecision" text-rendering="geometricPrecision" image-rendering="optimizeQuality" fill-rule="evenodd" clip-rule="evenodd"
viewBox="0 0 5483 826"
 xmlns:xlink="http://www.w3.org/1999/xlink">
 <g id="Layer_x0020_1">
  <metadata id="CorelCorpID_0Corel-Layer"/>
  <g id="_1447053184">
   <path fill="#440203" fill-rule="nonzero" d="M1579 90c0,0 -970,-260 -1579,104l73 183c0,0 625,-145 934,-108 0,0 -380,134 -616,373l97 184c0,0 581,-413 1068,-443l23 -293z"/>
   <path fill="#440203" fill-rule="nonzero" d="M4010 158c0,0 847,-256 1473,84l-125 190c0,0 -414,-194 -831,-127 0,0 489,135 616,329l-185 126c0,0 -264,-216 -920,-367l-28 -235z"/>
  </g>
 </g>
</svg>
