<?xml version="1.0" encoding="UTF-8"?>
<!DOCTYPE svg PUBLIC "-//W3C//DTD SVG 1.1//EN" "http://www.w3.org/Graphics/SVG/1.1/DTD/svg11.dtd">
<!-- Creator: CorelDRAW X7 -->
<svg xmlns="http://www.w3.org/2000/svg" xml:space="preserve" width="18.1106mm" height="5.3835mm" version="1.1" shape-rendering="geometricPrecision" text-rendering="geometricPrecision" image-rendering="optimizeQuality" fill-rule="evenodd" clip-rule="evenodd"
viewBox="0 0 4106 1220"
 xmlns:xlink="http://www.w3.org/1999/xlink">
 <g id="Layer_x0020_1">
  <metadata id="CorelCorpID_0Corel-Layer"/>
  <g id="_1447077312">
   <g>
    <g>
     <path fill="#440203" d="M3536 0c-584,-16 -574,627 -574,627l100 -9c10,-234 179,-472 515,-452 337,20 405,385 405,385l124 7c0,0 13,-541 -570,-558zm-2966 0l0 0c-583,17 -570,558 -570,558l123 -7c0,0 69,-365 405,-385 337,-20 505,218 515,452l101 9c0,0 9,-643 -574,-627z"/>
    </g>
   </g>
   <path fill="#FE6DCB" d="M3613 1195c-220,0 -399,-114 -399,-253 0,-140 179,-254 399,-254 221,0 400,114 400,254 0,139 -179,253 -400,253zm-3119 25l0 0c-220,0 -399,-113 -399,-253 0,-140 179,-253 399,-253 221,0 400,113 400,253 0,140 -179,253 -400,253z"/>
  </g>
 </g>
</svg>
