<?xml version="1.0" encoding="UTF-8"?>
<!DOCTYPE svg PUBLIC "-//W3C//DTD SVG 1.1//EN" "http://www.w3.org/Graphics/SVG/1.1/DTD/svg11.dtd">
<!-- Creator: CorelDRAW X7 -->
<svg xmlns="http://www.w3.org/2000/svg" xml:space="preserve" width="18.787mm" height="5.9688mm" version="1.1" shape-rendering="geometricPrecision" text-rendering="geometricPrecision" image-rendering="optimizeQuality" fill-rule="evenodd" clip-rule="evenodd"
viewBox="0 0 4713 1497"
 xmlns:xlink="http://www.w3.org/1999/xlink">
 <g id="Layer_x0020_1">
  <metadata id="CorelCorpID_0Corel-Layer"/>
  <g id="_1447077248">
   <g>
    <path fill="none" fill-rule="nonzero" stroke="#440203" stroke-width="250.881" d="M1372 749c0,344 -279,623 -623,623 -344,0 -624,-279 -624,-623 0,-345 280,-624 624,-624 344,0 623,279 623,624z"/>
    <path id="1" fill="white" fill-rule="nonzero" d="M1372 749c0,344 -279,623 -623,623 -344,0 -624,-279 -624,-623 0,-345 280,-624 624,-624 344,0 623,279 623,624z"/>
   </g>
   <g id="_1447035712">
    <path fill="#440203" fill-rule="nonzero" d="M943 937c-37,0 -73,-16 -99,-46 -39,-46 -76,-72 -102,-71 -32,2 -68,41 -79,58 -40,59 -120,76 -180,37 -59,-39 -76,-118 -38,-178 11,-17 110,-164 279,-176 79,-5 197,19 318,162 47,55 40,137 -15,183 -24,21 -54,31 -84,31z"/>
   </g>
   <g>
    <path fill="none" fill-rule="nonzero" stroke="#440203" stroke-width="250.881" d="M4588 749c0,344 -279,623 -623,623 -345,0 -624,-279 -624,-623 0,-345 279,-624 624,-624 344,0 623,279 623,624z"/>
    <path id="1" fill="white" fill-rule="nonzero" d="M4588 749c0,344 -279,623 -623,623 -345,0 -624,-279 -624,-623 0,-345 279,-624 624,-624 344,0 623,279 623,624z"/>
   </g>
   <g>
    <path fill="#440203" fill-rule="nonzero" d="M4159 937c-37,0 -73,-16 -99,-46 -39,-46 -76,-72 -103,-71 -31,2 -67,41 -78,58 -40,59 -120,76 -180,37 -59,-39 -77,-118 -38,-178 10,-17 109,-164 279,-176 79,-5 197,19 318,162 46,55 40,137 -15,183 -25,21 -54,31 -84,31z"/>
   </g>
  </g>
 </g>
</svg>
