<?xml version="1.0" encoding="UTF-8"?>
<!DOCTYPE svg PUBLIC "-//W3C//DTD SVG 1.1//EN" "http://www.w3.org/Graphics/SVG/1.1/DTD/svg11.dtd">
<!-- Creator: CorelDRAW X7 -->
<svg xmlns="http://www.w3.org/2000/svg" xml:space="preserve" width="18.9796mm" height="3.2139mm" version="1.1" shape-rendering="geometricPrecision" text-rendering="geometricPrecision" image-rendering="optimizeQuality" fill-rule="evenodd" clip-rule="evenodd"
viewBox="0 0 4265 722"
 xmlns:xlink="http://www.w3.org/1999/xlink">
 <g id="Layer_x0020_1">
  <metadata id="CorelCorpID_0Corel-Layer"/>
  <g id="_1455565472">
   <g>
    <g>
     <g>
      <path fill="white" fill-rule="nonzero" d="M4265 0c0,399 -323,722 -722,722 -399,0 -723,-323 -723,-722l1445 0z"/>
     </g>
    </g>
    <g>
     <g>
      <path fill="#440203" fill-rule="nonzero" d="M3761 0c0,120 -97,218 -218,218 -120,0 -219,-98 -219,-218l437 0z"/>
     </g>
    </g>
   </g>
   <g>
    <g>
     <g>
      <path fill="white" fill-rule="nonzero" d="M1445 0c0,399 -324,722 -723,722 -398,0 -722,-323 -722,-722l1445 0z"/>
     </g>
    </g>
    <g>
     <g>
      <path fill="#440203" fill-rule="nonzero" d="M941 0c0,120 -98,218 -219,218 -120,0 -218,-98 -218,-218l437 0z"/>
     </g>
    </g>
   </g>
  </g>
 </g>
</svg>
