<?xml version="1.0" encoding="UTF-8"?>
<!DOCTYPE svg PUBLIC "-//W3C//DTD SVG 1.1//EN" "http://www.w3.org/Graphics/SVG/1.1/DTD/svg11.dtd">
<!-- Creator: CorelDRAW X7 -->
<svg xmlns="http://www.w3.org/2000/svg" xml:space="preserve" width="18.6203mm" height="5.7581mm" version="1.1" shape-rendering="geometricPrecision" text-rendering="geometricPrecision" image-rendering="optimizeQuality" fill-rule="evenodd" clip-rule="evenodd"
viewBox="0 0 4987 1542"
 xmlns:xlink="http://www.w3.org/1999/xlink">
 <g id="Layer_x0020_1">
  <metadata id="CorelCorpID_0Corel-Layer"/>
  <g id="_1428966416">
   <path fill="#440203" fill-rule="nonzero" d="M4719 771c0,-139 -57,-265 -148,-356 -91,-91 -216,-147 -355,-147 -139,0 -265,56 -356,147 -91,91 -148,217 -148,356 0,139 57,265 148,356l0 0c91,91 217,147 356,147 139,0 264,-56 355,-147l1 0c91,-91 147,-217 147,-356zm42 -545c139,139 226,332 226,545 0,213 -87,405 -226,545l0 0c-140,140 -333,226 -545,226 -213,0 -406,-86 -546,-226l0 0c-139,-140 -225,-332 -225,-545 0,-213 86,-406 225,-545 140,-140 333,-226 546,-226 212,0 405,86 545,226z"/>
   <path fill="#F6F6F6" fill-rule="nonzero" d="M4853 771c0,-352 -286,-637 -637,-637 -352,0 -638,285 -638,637 0,352 286,637 638,637 351,0 637,-285 637,-637z"/>
   <path fill="#440203" fill-rule="nonzero" d="M4693 771c0,-264 -214,-478 -477,-478 -264,0 -478,214 -478,478 0,264 214,478 478,478 263,0 477,-214 477,-478z"/>
   <path fill="#F6F6F6" fill-rule="nonzero" d="M4117 529c0,-122 -98,-220 -220,-220 -121,0 -220,98 -220,220 0,121 99,220 220,220 122,0 220,-99 220,-220z"/>
   <path fill="#F6F6F6" fill-rule="nonzero" d="M4693 1109c0,-93 -74,-167 -166,-167 -93,0 -167,74 -167,167 0,92 74,166 167,166 92,0 166,-74 166,-166z"/>
   <path fill="#440203" fill-rule="nonzero" d="M1274 771c0,-139 -56,-265 -147,-356 -91,-91 -217,-147 -356,-147 -139,0 -265,56 -356,147 -91,91 -147,217 -147,356 0,139 56,265 147,356l0 0c91,91 217,147 356,147 139,0 265,-56 356,-147l0 0c91,-91 147,-217 147,-356zm42 -545c140,139 226,332 226,545 0,213 -86,405 -226,545l0 0c-139,140 -332,226 -545,226 -213,0 -406,-86 -545,-226l0 0c-140,-140 -226,-332 -226,-545 0,-213 86,-406 226,-545 139,-140 332,-226 545,-226 213,0 406,86 545,226z"/>
   <path fill="#F6F6F6" fill-rule="nonzero" d="M1408 771c0,-352 -285,-637 -637,-637 -352,0 -637,285 -637,637 0,352 285,637 637,637 352,0 637,-285 637,-637z"/>
   <path fill="#440203" fill-rule="nonzero" d="M1249 771c0,-264 -214,-478 -478,-478 -264,0 -478,214 -478,478 0,264 214,478 478,478 264,0 478,-214 478,-478z"/>
   <path fill="#F6F6F6" fill-rule="nonzero" d="M672 529c0,-122 -98,-220 -220,-220 -121,0 -220,98 -220,220 0,121 99,220 220,220 122,0 220,-99 220,-220z"/>
   <path fill="#F6F6F6" fill-rule="nonzero" d="M1249 1109c0,-93 -75,-167 -167,-167 -92,0 -167,74 -167,167 0,92 75,166 167,166 92,0 167,-74 167,-166z"/>
  </g>
 </g>
</svg>
