<?xml version="1.0" encoding="UTF-8"?>
<!DOCTYPE svg PUBLIC "-//W3C//DTD SVG 1.1//EN" "http://www.w3.org/Graphics/SVG/1.1/DTD/svg11.dtd">
<!-- Creator: CorelDRAW X7 -->
<svg xmlns="http://www.w3.org/2000/svg" xml:space="preserve" width="25.5941mm" height="20.1853mm" version="1.1" shape-rendering="geometricPrecision" text-rendering="geometricPrecision" image-rendering="optimizeQuality" fill-rule="evenodd" clip-rule="evenodd"
viewBox="0 0 5818 4589"
 xmlns:xlink="http://www.w3.org/1999/xlink">
 <g id="Layer_x0020_1">
  <metadata id="CorelCorpID_0Corel-Layer"/>
  <g id="_1448563040">
   <path fill="white" fill-rule="nonzero" d="M1793 4509c-127,-553 -455,-2430 521,-3977 0,0 208,-267 10,-419 -198,-152 -648,222 -917,1196 0,0 -176,-298 -201,-730 -24,-431 -674,-221 -397,974 0,0 -180,-502 -349,-326 -170,176 -166,541 66,982 0,0 -268,-305 -355,101 -86,406 363,1083 363,1083 0,0 -315,-332 -454,-104 1076,1381 584,923 1713,1220z"/>
   <path fill="#440203" fill-rule="nonzero" d="M1687 4400c-64,-317 -148,-865 -127,-1509 24,-744 189,-1614 686,-2402l4 -6c0,0 159,-204 25,-307 -8,-6 -17,-10 -26,-13 -34,-9 -79,2 -133,34 -65,39 -137,106 -211,203 -150,195 -303,502 -421,930 -11,43 -56,68 -98,56 -21,-6 -38,-20 -48,-37 -1,-1 -186,-314 -212,-765 -3,-68 -25,-110 -54,-125 -14,-7 -32,-7 -52,1 -28,11 -58,36 -86,75 -106,149 -170,469 -47,1000 10,43 -17,86 -60,96 -41,10 -81,-14 -94,-53 -12,-34 -140,-374 -216,-296 -71,74 -104,193 -94,345 11,155 67,340 174,544 20,39 5,88 -34,108 -34,18 -76,9 -99,-20 -22,-23 -165,-164 -214,68 -80,373 349,1020 350,1022 25,36 15,86 -22,110 -33,22 -77,16 -103,-12 -12,-12 -189,-194 -288,-151 132,170 233,303 318,414 235,308 342,449 436,516 72,51 148,63 289,85 109,17 253,40 457,89zm33 -1504c-24,722 88,1322 151,1595 3,12 3,25 -1,38 -11,43 -55,68 -98,57 -267,-70 -441,-97 -567,-117 -165,-26 -254,-40 -357,-113 -113,-81 -225,-227 -470,-549 -99,-130 -220,-288 -359,-466 -22,-26 -26,-63 -7,-94 77,-126 185,-138 286,-106 -123,-244 -260,-591 -205,-847 53,-250 156,-305 254,-290 -49,-132 -76,-255 -84,-367 -13,-197 36,-359 139,-465 96,-101 188,-77 265,-9 -27,-352 42,-588 137,-720 47,-67 102,-111 157,-133 64,-25 128,-22 184,6 77,39 134,128 141,259 12,210 61,385 106,507 114,-345 251,-604 386,-780 86,-113 174,-193 256,-242 93,-56 181,-72 258,-51 29,8 56,21 80,40 249,191 31,497 7,529 -477,758 -636,1599 -659,2318z"/>
   <path fill="#440203" fill-rule="nonzero" d="M1352 1209c14,-42 58,-65 101,-52 42,13 65,58 52,100 0,1 -126,391 -136,544 -3,44 -42,77 -86,74 -44,-3 -77,-41 -74,-85 12,-173 143,-579 143,-581z"/>
   <path fill="#440203" fill-rule="nonzero" d="M712 1482c-9,-44 20,-86 63,-94 44,-8 86,20 94,63 0,1 45,234 210,560 20,39 4,87 -35,107 -40,20 -88,4 -108,-35 -175,-347 -224,-601 -224,-601z"/>
   <path fill="#440203" fill-rule="nonzero" d="M428 2191c-20,-39 -5,-87 34,-108 39,-20 87,-5 108,34 0,1 168,326 319,502 29,34 25,84 -9,113 -33,29 -84,25 -113,-9 -162,-189 -339,-531 -339,-532z"/>
   <path fill="#440203" fill-rule="nonzero" d="M445 3403c-26,-36 -18,-86 18,-112 35,-26 85,-18 112,17l215 296c26,35 18,85 -17,111 -36,26 -86,18 -112,-17 -187,-257 -215,-294 -216,-295z"/>
   <path fill="#440203" fill-rule="nonzero" d="M1520 1782c43,13 67,58 54,100 -13,43 -58,67 -100,54 -2,-1 -496,-158 -452,606 2,28 -11,54 -33,69 -24,20 -332,272 -51,600 27,32 25,80 -4,109 -1,1 -232,222 13,555 24,33 19,79 -11,106 -20,19 -180,185 -36,374 27,35 20,85 -15,112 -35,27 -85,20 -112,-15 -179,-234 -64,-443 8,-536 -197,-310 -80,-550 -7,-654 -270,-368 -10,-661 86,-750 -36,-951 658,-730 660,-730z"/>
   <path fill="white" fill-rule="nonzero" d="M1877 3229c528,-207 2262,-996 2988,-2674 0,0 103,-323 341,-245 237,77 181,660 -470,1431 0,0 345,-22 715,-245 370,-224 563,431 -580,877 0,0 517,-134 467,105 -50,239 -353,441 -848,499 0,0 403,49 117,350 -287,301 -1098,312 -1098,312 0,0 451,72 341,316 -109,243 -946,-12 -946,-12 0,0 194,348 -279,376 -472,28 -1216,-245 -1315,-615 -62,-231 31,-324 311,-395 87,-22 172,-47 256,-80z"/>
   <path fill="#440203" fill-rule="nonzero" d="M1847 3155c324,-127 1108,-476 1826,-1119 435,-389 846,-886 1116,-1507 9,-25 138,-395 441,-295 30,9 56,24 79,44 61,51 98,133 104,241 6,95 -11,213 -56,348 -69,211 -205,470 -426,759 126,-31 299,-90 479,-199 112,-68 217,-71 293,-29 55,30 93,81 108,148 13,58 9,129 -20,205 -56,153 -212,343 -518,520 100,25 172,87 143,223 -30,145 -135,277 -306,377 -96,57 -213,104 -350,138 68,72 80,188 -95,373 -182,190 -546,273 -817,309 84,66 136,161 75,296 -104,232 -638,134 -898,71 20,137 -25,319 -395,341 -264,15 -607,-58 -885,-188 -255,-119 -459,-288 -512,-486 -38,-143 -26,-247 43,-330 63,-75 169,-124 326,-163 43,-11 85,-23 125,-35 40,-13 80,-26 120,-42zm1933 -1000c-738,661 -1542,1019 -1874,1149 -43,17 -87,32 -132,46 -46,14 -90,26 -133,37 -124,31 -203,64 -242,111 -32,38 -35,97 -11,186 39,147 210,282 424,382 256,120 569,187 809,173 321,-19 229,-226 215,-255 -12,-18 -15,-42 -9,-64 13,-43 58,-67 100,-54 2,0 770,235 850,56 65,-145 -261,-201 -280,-204 -38,-5 -68,-38 -68,-78 -1,-44 34,-80 78,-81 3,0 779,-11 1042,-287 166,-175 -42,-212 -67,-216 -37,-4 -67,-32 -71,-70 -5,-44 26,-84 70,-89 229,-27 414,-85 548,-164 130,-77 210,-171 231,-272 22,-106 -324,-22 -365,-11 -39,12 -83,-8 -98,-48 -16,-41 4,-87 45,-103 508,-198 736,-432 799,-603 17,-46 21,-85 14,-115 -5,-20 -15,-35 -28,-43 -29,-15 -76,-9 -135,26 -386,234 -750,257 -751,257 -20,2 -41,-5 -57,-18 -34,-29 -38,-80 -9,-113 286,-339 454,-639 530,-872 38,-116 53,-213 48,-289 -3,-63 -20,-107 -47,-129 -7,-6 -16,-11 -25,-14 -161,-53 -239,192 -239,193l-1 0 -3 7c-280,648 -707,1165 -1158,1569z"/>
   <path fill="#440203" fill-rule="nonzero" d="M4723 1631c27,-34 77,-40 112,-13 35,27 41,78 14,112 -1,1 -262,339 -398,446 -35,28 -85,22 -113,-12 -27,-35 -21,-85 13,-113 120,-95 371,-419 372,-420z"/>
   <path fill="#440203" fill-rule="nonzero" d="M4921 2267c40,-18 88,0 106,40 18,40 0,88 -41,106 0,0 -238,104 -624,154 -43,6 -84,-25 -89,-69 -6,-44 25,-84 69,-89 362,-48 578,-142 579,-142z"/>
   <path fill="#440203" fill-rule="nonzero" d="M4541 2889c43,-5 83,26 89,69 5,44 -26,84 -69,90 -2,0 -384,47 -632,20 -44,-4 -76,-44 -71,-88 5,-44 44,-76 88,-71 231,25 593,-20 595,-20z"/>
   <path fill="#440203" fill-rule="nonzero" d="M3555 3558c44,1 78,38 77,82 -1,44 -38,79 -82,77 -1,0 -251,-8 -365,-11 -44,-1 -79,-38 -78,-82 2,-44 38,-79 82,-78 114,3 365,12 366,12z"/>
   <path fill="#440203" fill-rule="nonzero" d="M2982 3882c43,12 68,56 56,98 -12,43 -56,68 -99,56l-227 -64c-43,-12 -68,-56 -56,-99 12,-42 56,-67 99,-55l227 64z"/>
   <path fill="#B5DAE8" fill-rule="nonzero" d="M3428 3295c35,-29 85,-28 130,-32 145,-14 280,-105 347,-234 26,-50 42,-104 71,-153 67,-114 193,-178 279,-279 146,-172 148,-449 4,-623 111,-1 213,80 256,182 43,102 35,221 -4,325 -67,185 -228,333 -418,385 41,155 -30,328 -156,427 -126,98 -299,127 -456,96 -21,122 -94,235 -197,305 -103,69 -235,94 -356,68 -16,98 -81,187 -169,232 -89,45 -199,44 -287,-1 144,9 291,-76 353,-207 22,-44 36,-96 75,-126 46,-36 110,-29 169,-35 132,-14 254,-105 305,-229 14,-36 25,-76 54,-101z"/>
   <path fill="#B5DAE8" fill-rule="nonzero" d="M1338 3600c-2,-75 18,-115 68,-150 44,-32 102,-54 173,-76 132,-42 257,-86 389,-128 -94,58 -183,87 -285,129 -89,36 -210,80 -248,168 -34,78 -3,172 53,236 56,64 149,129 225,166 192,95 388,176 600,206 212,30 456,44 574,-124 25,71 7,114 -16,152 -40,65 -120,79 -196,89 -138,18 -211,10 -369,-15 -146,-24 -256,-62 -404,-113 -77,-27 -147,-56 -216,-99 -46,-29 -102,-66 -144,-100 -62,-51 -108,-102 -139,-152 -37,-60 -64,-120 -65,-189z"/>
   <path fill="#440203" fill-rule="nonzero" d="M4180 2040c-34,-27 -39,-78 -12,-112 28,-35 78,-40 113,-12 1,1 575,449 -230,956 -19,130 -114,510 -571,494 -44,120 -177,351 -543,364 -37,113 -145,324 -438,309 -44,-2 -78,-40 -76,-84 3,-44 40,-78 84,-76 252,13 288,-240 289,-241 6,-40 41,-70 82,-68 387,14 457,-264 464,-299 6,-43 45,-73 88,-68 425,46 463,-342 466,-380 1,-27 14,-53 39,-67 656,-396 247,-715 245,-716z"/>
   <path fill="#440203" fill-rule="nonzero" d="M2870 2956c9,-20 32,-30 52,-22 21,8 30,32 22,52 -8,20 -200,155 -438,279 -140,73 -299,146 -447,192 -71,23 -129,48 -175,74 -81,46 -127,97 -149,147 -21,47 -20,95 -7,137 5,17 12,32 20,46 11,19 5,44 -14,55 -20,11 -44,4 -55,-15 -11,-19 -21,-40 -27,-62 -19,-59 -20,-126 10,-193 28,-65 85,-128 182,-184 51,-30 115,-57 191,-81 143,-45 297,-115 434,-187 224,-116 397,-227 401,-238z"/>
  </g>
 </g>
</svg>
