<?xml version="1.0" encoding="UTF-8"?>
<!DOCTYPE svg PUBLIC "-//W3C//DTD SVG 1.1//EN" "http://www.w3.org/Graphics/SVG/1.1/DTD/svg11.dtd">
<!-- Creator: CorelDRAW X7 -->
<?xml-stylesheet href="eyes-1.css" type="text/css"?>
<svg xmlns="http://www.w3.org/2000/svg" xml:space="preserve" width="18.3856mm" height="6.4083mm" version="1.1" style="shape-rendering:geometricPrecision; text-rendering:geometricPrecision; image-rendering:optimizeQuality; fill-rule:evenodd; clip-rule:evenodd"
viewBox="0 0 5235 1825"
 xmlns:xlink="http://www.w3.org/1999/xlink">
 <g id="Layer_x0020_1">
  <metadata id="CorelCorpID_0Corel-Layer"/>
  <g id="_1428943600">
   <g>
    <path class="fil0" d="M3851 1164c102,484 488,764 863,625 376,-139 598,-644 496,-1128 -101,-484 -488,-764 -863,-625 -375,138 -597,643 -496,1128z"/>
    <g>
     <path class="fil1" d="M4048 647c-3,197 90,353 209,347 119,-5 217,-169 221,-367 3,-197 -91,-353 -210,-347 -118,5 -217,170 -220,367z"/>
     <path class="fil1" d="M4800 1156c3,99 54,175 113,170 59,-4 104,-88 101,-187 -4,-99 -55,-175 -114,-170 -59,5 -104,88 -100,187z"/>
    </g>
   </g>
   <g>
    <path class="fil0" d="M25 1164c101,484 487,764 863,625 375,-139 597,-644 496,-1128 -102,-484 -488,-764 -864,-625 -375,138 -597,643 -495,1128z"/>
    <g>
     <path class="fil1" d="M221 647c-3,197 91,353 209,347 119,-5 218,-169 221,-367 3,-197 -91,-353 -209,-347 -119,5 -218,170 -221,367z"/>
     <path class="fil1" d="M973 1156c4,99 54,175 113,170 60,-4 105,-88 101,-187 -3,-99 -54,-175 -113,-170 -59,5 -104,88 -101,187z"/>
    </g>
   </g>
  </g>
 </g>
</svg>
