<?xml version="1.0" encoding="UTF-8"?>
<!DOCTYPE svg PUBLIC "-//W3C//DTD SVG 1.1//EN" "http://www.w3.org/Graphics/SVG/1.1/DTD/svg11.dtd">
<!-- Creator: CorelDRAW X7 -->
<svg xmlns="http://www.w3.org/2000/svg" xml:space="preserve" width="25.4798mm" height="12.042mm" version="1.1" shape-rendering="geometricPrecision" text-rendering="geometricPrecision" image-rendering="optimizeQuality" fill-rule="evenodd" clip-rule="evenodd"
viewBox="0 0 10208 4825"
 xmlns:xlink="http://www.w3.org/1999/xlink">
 <g id="Layer_x0020_1">
  <metadata id="CorelCorpID_0Corel-Layer"/>
  <g id="_1435898672">
   <path fill="#440203" fill-rule="nonzero" d="M4267 1654c-182,-239 -641,-682 -1251,-815 -371,-81 -805,-41 -1274,247l-1 0c-148,90 -312,238 -460,404 -149,168 -277,350 -350,509l0 1c-84,181 -129,377 -132,573 -4,198 32,397 109,581l0 0c78,185 194,350 336,485 143,135 314,242 501,308 45,16 90,30 133,39 43,9 82,15 115,16l2 0c104,2 209,-33 300,-95 17,-12 34,-25 50,-38 -16,1 -32,3 -49,4 -143,8 -289,-17 -420,-68 -115,-45 -220,-110 -314,-189 -97,-81 -180,-173 -248,-270 -105,-149 -185,-325 -223,-509 -37,-181 -34,-368 23,-548l2 0c82,-259 263,-461 489,-591 224,-129 496,-187 755,-154 229,29 438,117 621,244 191,131 353,305 477,496 59,90 112,188 152,293 45,116 74,239 78,370 3,75 -1,127 -5,179 -3,40 -6,79 -5,100 2,47 31,95 73,137 63,64 151,109 241,128 91,19 216,8 339,-26 110,-31 206,-75 258,-129 69,-71 169,-319 119,-704 -37,-278 -161,-610 -441,-978zm-1082 -1598c842,184 1470,787 1718,1113 375,493 544,960 596,1360 89,674 -167,1190 -338,1365 -154,158 -381,275 -617,341 -239,66 -501,83 -714,39 -219,-46 -433,-153 -601,-305 -97,245 -270,452 -483,598 -224,153 -496,240 -773,233 -92,-3 -179,-14 -261,-32 -80,-17 -158,-40 -233,-66 -290,-104 -558,-271 -783,-484 -226,-214 -408,-472 -527,-755l0 -1c-118,-284 -174,-593 -169,-902 6,-311 75,-619 204,-898l1 1c106,-228 280,-478 478,-702 199,-223 426,-425 640,-557l0 -1c673,-413 1310,-467 1862,-347zm-673 2901c131,-39 262,-29 378,17l0 -2c-1,-34 -10,-70 -24,-107 -19,-49 -46,-98 -77,-146 -70,-107 -159,-203 -262,-274 -83,-58 -174,-97 -267,-109 -87,-11 -180,9 -258,54 -60,35 -107,83 -126,139l2 1c-15,46 -15,96 -4,147 14,72 48,144 94,209 32,46 67,86 104,117 29,24 60,43 95,57 28,11 58,16 86,14 19,-1 35,-4 47,-11l3 -2c15,-9 0,-1 16,-12l2 0c52,-34 104,-68 191,-93l0 1z"/>
   <path fill="#A5765B" fill-rule="nonzero" d="M4585 1411c-352,-462 -1585,-1568 -3053,-666 -362,222 -786,701 -965,1086 -214,460 -224,1010 -28,1478 196,467 595,845 1073,1015 120,43 245,73 372,77 381,10 755,-245 883,-604 36,-101 53,-215 13,-314 -41,-100 -153,-175 -256,-144 -44,13 -80,43 -119,66 -144,86 -328,88 -484,27 -156,-61 -284,-179 -380,-316 -144,-204 -220,-469 -145,-707 103,-324 477,-512 814,-469 338,43 628,277 814,562 89,137 160,293 165,457 3,97 -16,193 -10,289 18,320 318,569 632,634 297,62 752,-50 964,-267 197,-202 550,-1100 -290,-2204z"/>
   <path fill="#8E6450" fill-rule="nonzero" d="M2264 4128c-127,-4 -252,-34 -372,-77 -477,-170 -877,-548 -1073,-1015 -196,-468 -185,-1018 28,-1478 99,-210 269,-449 463,-658 -294,249 -585,609 -726,911 -214,460 -224,1010 -28,1478 195,467 595,845 1073,1015 120,43 245,73 372,77 305,8 604,-154 778,-403 -153,99 -333,155 -515,150z"/>
   <path fill="#8E6450" fill-rule="nonzero" d="M4191 3609c-314,-65 -613,-314 -632,-635 -6,-96 13,-192 10,-288 -5,-164 -76,-320 -165,-457 -186,-285 -476,-519 -813,-562 -295,-38 -617,101 -763,352 150,-84 329,-121 499,-99 337,43 628,277 813,562 90,137 160,293 166,457 3,96 -16,192 -11,289 19,320 318,569 632,634 297,62 753,-50 965,-267 27,-28 58,-70 87,-123 -233,128 -558,185 -788,137z"/>
   <path fill="#DDCBC1" fill-rule="nonzero" d="M2068 1148c63,33 144,20 216,5 189,-37 380,-67 572,-52 169,12 336,62 486,141 96,50 184,113 263,186 82,75 156,164 255,216 2,1 4,2 6,3 102,52 243,51 313,-39 53,-69 48,-170 9,-247 -39,-78 -107,-137 -175,-191 -139,-109 -296,-215 -464,-304 -425,-224 -918,-336 -1358,-111 -71,36 -142,85 -179,156 -36,71 -31,170 31,221 8,6 16,11 25,16z"/>
   <path fill="#DDCBC1" fill-rule="nonzero" d="M1291 1705c24,13 52,17 79,8 28,-9 51,-30 72,-50 108,-102 217,-204 325,-307 82,-78 72,-229 -23,-280 -24,-12 -51,-18 -84,-17 -69,4 -129,46 -180,92 -78,68 -146,147 -202,234 -41,62 -76,135 -65,209 7,46 38,90 78,111z"/>
   <path fill="#440203" fill-rule="nonzero" d="M5360 1090c259,-315 908,-895 1756,-1048 556,-101 1191,-24 1847,413 209,139 430,349 621,580 189,230 354,487 452,719 120,285 177,595 172,902 -5,310 -73,618 -202,898 -130,282 -321,533 -552,736 -231,204 -504,361 -800,455 -76,24 -155,44 -236,58 -81,15 -168,22 -262,22 -277,-3 -546,-100 -765,-261 -208,-154 -373,-367 -461,-614 -172,145 -390,244 -610,282 -216,37 -477,11 -713,-64 -233,-74 -455,-199 -604,-363 -165,-181 -403,-707 -290,-1377 67,-397 253,-857 647,-1338zm1897 -262c-614,111 -1090,537 -1281,770 -292,356 -427,684 -474,962 -65,383 26,633 92,707 50,55 145,103 254,137 122,39 247,55 337,39l1 0c91,-15 179,-57 245,-119 44,-41 74,-88 79,-135 2,-23 0,-60 -1,-98 -3,-59 -5,-118 -1,-180 9,-130 42,-252 91,-366 45,-105 102,-201 163,-288 130,-185 299,-353 496,-479 187,-119 400,-200 628,-221 262,-24 532,43 750,180 221,138 395,347 468,610 51,183 47,370 4,548 -44,181 -130,353 -241,499l1 1c-72,96 -159,186 -258,262 -96,74 -203,135 -321,176 -134,47 -280,66 -422,53 -17,-1 -34,-3 -50,-6 16,15 33,29 50,42 88,65 192,104 295,104 34,1 74,-4 118,-12 43,-7 88,-19 133,-33 188,-60 363,-160 512,-292 150,-131 272,-292 355,-470 83,-180 127,-378 130,-575 3,-199 -33,-398 -110,-580 -68,-160 -189,-347 -333,-522 -142,-171 -300,-324 -445,-421 -459,-305 -892,-361 -1265,-293zm49 2139c119,-42 251,-48 380,-4l0 1c87,29 137,64 186,99l17 11 3 3c12,8 28,12 46,14 29,3 59,-2 88,-12 32,-11 65,-30 95,-54 39,-30 76,-68 109,-112l1 0c47,-62 83,-133 101,-206 12,-52 14,-103 2,-147 -16,-57 -61,-107 -120,-144 -77,-48 -169,-72 -256,-64 -94,9 -186,45 -271,99 -104,66 -196,160 -271,266 -33,47 -62,94 -81,141 -16,36 -27,73 -29,106l0 3z"/>
   <path fill="#A5765B" fill-rule="nonzero" d="M5668 1344c368,-449 1641,-1510 3075,-556 354,236 760,729 925,1121 197,467 187,1017 -25,1477 -213,461 -625,824 -1109,977 -121,38 -248,64 -375,62 -381,-3 -745,-272 -860,-635 -32,-102 -46,-216 -2,-314 44,-98 160,-169 261,-134 43,14 78,45 117,70 140,91 324,100 482,44 158,-55 291,-169 392,-302 150,-199 237,-461 170,-701 -91,-327 -458,-529 -797,-498 -339,31 -637,254 -833,532 -94,134 -171,287 -182,451 -7,96 9,193 0,289 -30,319 -338,557 -655,611 -298,51 -750,-78 -953,-302 -190,-209 -510,-1119 369,-2192z"/>
   <path fill="#8E6450" fill-rule="nonzero" d="M7889 4142c127,1 254,-24 375,-63 483,-152 896,-516 1109,-976 213,-460 222,-1010 25,-1477 -91,-214 -252,-458 -439,-674 285,259 563,629 693,936 197,468 188,1017 -25,1478 -213,460 -626,823 -1109,976 -122,38 -248,64 -375,63 -305,-3 -598,-175 -762,-431 148,104 326,167 508,168z"/>
   <path fill="#8E6450" fill-rule="nonzero" d="M5982 3555c317,-54 625,-292 655,-612 9,-96 -7,-192 0,-288 11,-164 87,-317 182,-451 196,-279 494,-502 833,-533 296,-27 613,124 749,380 -146,-89 -324,-133 -495,-117 -338,31 -637,254 -833,532 -94,134 -171,287 -182,451 -6,96 10,193 0,289 -30,320 -338,557 -654,611 -299,51 -751,-77 -954,-302 -27,-29 -56,-71 -83,-126 228,137 551,205 782,166z"/>
   <path fill="#DDCBC1" fill-rule="nonzero" d="M8193 1172c-64,31 -145,14 -217,-3 -186,-44 -377,-81 -568,-73 -170,7 -339,50 -492,124 -97,47 -188,106 -270,176 -84,73 -161,159 -262,207 -2,1 -4,2 -6,3 -104,48 -245,42 -311,-51 -51,-71 -42,-171 0,-247 42,-76 111,-133 181,-184 144,-104 304,-205 476,-287 432,-209 929,-303 1360,-63 70,39 139,90 173,163 34,73 25,171 -39,219 -8,6 -16,11 -25,16z"/>
   <path fill="#DDCBC1" fill-rule="nonzero" d="M8950 1756c-25,12 -53,16 -80,6 -28,-10 -49,-32 -70,-53 -104,-106 -209,-212 -313,-318 -80,-82 -65,-232 33,-279 23,-12 51,-17 84,-14 68,6 127,51 177,98 75,71 140,152 193,241 38,64 71,138 57,212 -8,46 -41,88 -81,107z"/>
  </g>
 </g>
</svg>
