<?xml version="1.0" encoding="UTF-8"?>
<!DOCTYPE svg PUBLIC "-//W3C//DTD SVG 1.1//EN" "http://www.w3.org/Graphics/SVG/1.1/DTD/svg11.dtd">
<!-- Creator: CorelDRAW X7 -->
<svg xmlns="http://www.w3.org/2000/svg" xml:space="preserve" width="21.8075mm" height="10.4519mm" version="1.1" shape-rendering="geometricPrecision" text-rendering="geometricPrecision" image-rendering="optimizeQuality" fill-rule="evenodd" clip-rule="evenodd"
viewBox="0 0 6971 3341"
 xmlns:xlink="http://www.w3.org/1999/xlink">
 <g id="Layer_x0020_1">
  <metadata id="CorelCorpID_0Corel-Layer"/>
  <g id="_1439050688">
   <g>
    <path fill="#FFDD0F" fill-rule="nonzero" d="M2180 1669c0,0 -634,-1651 -1328,-1530 -695,123 -805,2610 -667,3180 0,0 1075,-116 1995,-1650z"/>
    <path fill="#440203" fill-rule="nonzero" d="M2139 1685c-106,-80 -168,-175 -223,-274 -56,-98 -103,-200 -153,-301 -49,-101 -108,-197 -169,-289 -62,-92 -128,-180 -199,-261 -71,-81 -148,-154 -229,-208 -82,-55 -168,-86 -247,-85 -10,1 -20,2 -30,3l-15 1 -12 3c-8,1 -16,5 -24,7 -8,5 -16,7 -24,12 -32,18 -64,46 -95,82 -60,71 -110,165 -152,263 -83,198 -137,418 -179,638 -42,221 -71,447 -91,673 -19,226 -30,454 -30,680 0,57 0,114 2,170 1,56 10,112 16,168 6,55 7,110 1,166 -7,56 -21,111 -58,175l-2 4c-15,27 -50,37 -77,21 -3,-1 -5,-2 -7,-4 -63,-48 -94,-108 -114,-167 -18,-59 -27,-118 -28,-178 0,-60 4,-119 2,-178 -1,-59 -2,-118 -2,-177 0,-235 11,-469 32,-703 20,-234 50,-467 94,-699 45,-233 100,-465 196,-693 48,-114 106,-227 195,-333 45,-52 99,-102 168,-141 16,-10 36,-17 54,-26 19,-7 38,-14 58,-19l30 -7c10,-1 19,-2 28,-3l57 -5c153,-2 292,56 401,129 110,74 201,162 282,254 82,93 154,190 221,290 66,100 126,202 189,304 62,101 120,204 162,315 43,110 75,226 55,361 -4,28 -31,47 -58,43 -9,-2 -17,-5 -23,-10l-2 -1z"/>
    <path fill="#FE6DCB" fill-rule="nonzero" d="M1582 1644c0,0 -284,-839 -607,-772 -323,66 -390,1335 -329,1625 0,0 500,-66 936,-853z"/>
    <path fill="#440203" fill-rule="nonzero" d="M1013 1001c-4,0 -8,1 -11,1 -27,6 -137,129 -204,620 -34,248 -44,518 -36,695 155,-73 422,-253 674,-686 -116,-315 -309,-630 -423,-630zm-367 1629c-62,0 -117,-43 -130,-106 -58,-275 -18,-1262 218,-1621 60,-91 131,-145 214,-162 417,-85 707,701 761,860 12,35 8,74 -10,107 -464,837 -1013,918 -1036,921 -6,1 -11,1 -17,1z"/>
   </g>
   <g>
    <path fill="#FFDD0F" fill-rule="nonzero" d="M4790 1669c0,0 635,-1651 1329,-1530 694,123 805,2610 666,3180 0,0 -1075,-116 -1995,-1650z"/>
    <path fill="#440203" fill-rule="nonzero" d="M4832 1685c105,-80 167,-175 222,-274 57,-98 103,-200 153,-301 50,-101 108,-197 170,-289 61,-92 127,-180 198,-261 71,-81 148,-154 230,-208 82,-55 168,-86 247,-85 10,1 20,2 30,3l14 1 12 3c8,1 16,5 24,7 8,5 16,7 24,12 32,18 65,46 95,82 61,71 111,165 152,263 83,198 137,418 180,638 42,221 70,447 90,673 20,226 30,454 31,680 0,57 -1,114 -2,170 -2,56 -10,112 -16,168 -7,55 -7,110 -1,166 7,56 21,111 57,175l2 4c16,27 51,37 78,21 2,-1 5,-2 6,-4 63,-48 94,-108 114,-167 19,-59 28,-118 28,-178 1,-60 -3,-119 -1,-178 1,-59 2,-118 2,-177 -1,-235 -12,-469 -32,-703 -20,-234 -50,-467 -94,-699 -45,-233 -101,-465 -196,-693 -48,-114 -106,-227 -195,-333 -45,-52 -100,-102 -168,-141 -17,-10 -36,-17 -54,-26 -19,-7 -38,-14 -58,-19l-31 -7c-9,-1 -18,-2 -28,-3l-56 -5c-153,-2 -292,56 -401,129 -110,74 -201,162 -283,254 -81,93 -153,190 -220,290 -67,100 -127,202 -189,304 -62,101 -120,204 -163,315 -43,110 -75,226 -54,361 4,28 30,47 58,43 9,-2 17,-5 23,-10l2 -1z"/>
    <path fill="#FE6DCB" fill-rule="nonzero" d="M5388 1644c0,0 285,-839 608,-772 323,66 389,1335 329,1625 0,0 -500,-66 -937,-853z"/>
    <path fill="#440203" fill-rule="nonzero" d="M5958 1001c4,0 7,1 11,1 26,6 137,129 203,620 34,248 44,518 37,695 -155,-73 -422,-253 -674,-686 116,-315 308,-630 423,-630zm367 1629c62,0 117,-43 130,-106 58,-275 17,-1262 -219,-1621 -59,-91 -131,-145 -213,-162 -418,-85 -707,701 -761,860 -12,35 -9,74 10,107 463,837 1012,918 1035,921 6,1 12,1 18,1z"/>
   </g>
  </g>
 </g>
</svg>
