<?xml version="1.0" encoding="UTF-8"?>
<!DOCTYPE svg PUBLIC "-//W3C//DTD SVG 1.1//EN" "http://www.w3.org/Graphics/SVG/1.1/DTD/svg11.dtd">
<!-- Creator: CorelDRAW X7 -->
<svg xmlns="http://www.w3.org/2000/svg" xml:space="preserve" width="7.3987mm" height="13.1443mm" version="1.1" shape-rendering="geometricPrecision" text-rendering="geometricPrecision" image-rendering="optimizeQuality" fill-rule="evenodd" clip-rule="evenodd"
viewBox="0 0 661 1174"
 xmlns:xlink="http://www.w3.org/1999/xlink">
 <g id="Layer_x0020_1">
  <metadata id="CorelCorpID_0Corel-Layer"/>
  <g id="_761575040">
   <path fill="#33AEF1" fill-rule="nonzero" d="M542 1051c-15,12 -33,24 -54,35 -6,3 -13,6 -19,8 -307,52 -333,-69 -389,-99 -2,-3 -2,-6 -3,-9 -12,-50 -21,-121 -25,-203 0,0 194,135 465,128 31,-1 63,-4 96,-9 2,44 -16,102 -71,149z"/>
   <path fill="#FDD800" fill-rule="nonzero" d="M613 902c-33,5 -65,8 -96,9 -271,7 -465,-128 -465,-128 -5,-82 -5,-174 -1,-265 0,0 123,128 410,179 36,6 74,11 115,14 19,74 33,139 37,187 0,1 0,3 0,4z"/>
   <path fill="#FEEF99" fill-rule="nonzero" d="M517 911c-15,-74 -33,-143 -54,-208 37,7 74,12 112,15l3 0c18,71 31,134 35,180 0,1 0,3 0,4 -33,5 -65,8 -96,9l0 0z"/>
   <path fill="#B177EA" fill-rule="nonzero" d="M576 711c-41,-3 -79,-8 -115,-14 -287,-51 -410,-179 -410,-179 5,-99 16,-196 34,-275 0,0 102,117 265,177 43,15 90,27 140,32 35,88 64,178 86,259z"/>
   <path fill="#E0C9F7" fill-rule="nonzero" d="M567 704c-35,-3 -71,-8 -105,-14 -1,0 -2,0 -3,0 -31,-98 -67,-185 -105,-262 44,15 88,25 132,30 32,82 60,167 81,246z"/>
   <path fill="#FE6DCB" fill-rule="nonzero" d="M490 445c-50,-5 -97,-17 -140,-32 -163,-60 -265,-177 -265,-177 14,-66 34,-120 59,-154 16,-23 34,-37 55,-40 93,-16 207,184 291,403z"/>
   <path fill="#FFC5EA" fill-rule="nonzero" d="M490 445c-46,-5 -89,-15 -128,-28 -74,-150 -151,-260 -205,-329 16,-22 34,-36 55,-39 3,-1 7,-1 10,-1 11,0 22,3 33,8 80,49 167,213 235,389z"/>
   <g>
    <path fill="#440203" fill-rule="nonzero" d="M91 501c39,33 175,133 432,166 -17,-59 -38,-120 -60,-180 -162,-21 -287,-109 -354,-167 -8,55 -14,116 -18,181zm485 249c-1,0 -2,0 -3,0 -379,-32 -543,-199 -550,-206 -7,-7 -11,-18 -11,-28 6,-107 18,-205 35,-282 3,-14 14,-25 28,-29 14,-3 29,1 39,12 1,2 156,176 380,196 15,1 27,11 33,25 34,88 64,179 86,263 4,12 1,25 -7,35 -8,9 -19,14 -30,14z"/>
    <path fill="#440203" fill-rule="nonzero" d="M89 761c54,32 242,131 481,108 -5,-35 -13,-76 -25,-122 -234,-24 -381,-100 -458,-151 -1,56 0,112 2,165zm524 141l0 0 0 0zm-117 48c-269,0 -457,-128 -466,-135 -10,-7 -16,-17 -17,-29 -5,-86 -5,-180 -1,-270 1,-16 11,-29 26,-35 14,-5 30,-1 41,10 1,1 153,152 500,182 16,1 30,12 34,28 21,77 34,144 38,194 1,2 1,5 1,8 0,19 -14,35 -33,38 -43,6 -84,9 -123,9z"/>
    <path fill="#440203" fill-rule="nonzero" d="M565 903l0 0 0 0zm14 107l1 0 -1 0zm-369 -914c-1,0 -2,0 -3,0 -16,2 -49,38 -76,157 -16,72 -27,165 -32,267 -5,88 -4,178 0,261 1,5 1,10 1,15l1 5c1,25 3,49 6,71 4,41 10,76 16,102l1 1c0,1 0,3 1,4 0,1 0,1 0,2 19,58 93,117 241,92 31,-5 60,-13 84,-23 6,-2 11,-4 16,-7l4 -2c3,-2 7,-4 10,-6l5 -2c3,-2 6,-4 8,-6l3 -2c4,-2 6,-4 9,-6l6 -4c1,-2 2,-3 3,-4l2 -1 1 -1c6,-6 12,-12 17,-18l1 -1c2,-3 4,-5 5,-7l1 -1 1 -1c2,-3 3,-5 5,-8l0 -1c2,-3 4,-6 5,-9l1 -2c1,-1 2,-4 3,-6l1 -2c1,-3 1,-5 2,-7l1 -3c1,-1 1,-3 2,-5 0,-1 0,-2 0,-2 1,-3 1,-5 2,-8l0 -3c0,-1 1,-3 1,-4l0 -3c0,-1 0,-3 0,-4l0 -3c0,-2 0,-3 0,-5 0,-1 0,-2 0,-3 0,0 0,-1 0,-1 -4,-44 -16,-107 -35,-178 -22,-82 -51,-170 -84,-255 -107,-275 -200,-373 -236,-373zm93 1078c-148,0 -241,-77 -269,-163 -1,-4 -2,-8 -3,-11l0 -2c-8,-32 -14,-70 -19,-115 -3,-24 -5,-49 -7,-75l0 -5c0,-6 -1,-11 -1,-17 -5,-86 -5,-180 -1,-271 6,-107 18,-205 35,-283 32,-143 82,-219 153,-231 137,-22 262,224 344,433 34,89 65,180 87,265 21,77 34,145 38,195 1,3 1,5 1,8l0 0c0,3 0,7 0,10 0,2 0,3 0,5 0,3 0,6 -1,8 0,2 0,4 0,6 0,3 -1,6 -1,9 -1,2 -1,3 -1,5 -1,4 -2,9 -3,13 0,1 0,2 -1,4 -1,3 -2,7 -3,10l-1 4 0 1c-1,3 -3,7 -4,10l-2 5c-1,3 -3,7 -5,11 0,1 -1,2 -2,4 -2,3 -4,8 -7,13 0,0 -1,2 -1,2 -3,5 -5,8 -8,12l-2 3 0 1c-3,4 -6,7 -9,11l-2 3c-8,9 -16,18 -26,27 0,0 -1,1 -2,1l-2 2c-1,2 -3,4 -5,5 -2,2 -3,3 -4,3l-6 5c-3,3 -7,6 -11,8 -2,2 -4,3 -6,4 -4,3 -8,5 -12,8l-1 0c-2,1 -3,2 -5,3 -5,3 -10,6 -15,8 -1,1 -3,2 -4,3 -8,4 -15,7 -23,10 -30,13 -66,23 -104,29 -28,4 -54,6 -79,6z"/>
   </g>
  </g>
 </g>
</svg>
