<?xml version="1.0" encoding="UTF-8"?>
<!DOCTYPE svg PUBLIC "-//W3C//DTD SVG 1.1//EN" "http://www.w3.org/Graphics/SVG/1.1/DTD/svg11.dtd">
<!-- Creator: CorelDRAW X7 -->
<svg xmlns="http://www.w3.org/2000/svg" xml:space="preserve" width="18.1778mm" height="12.9223mm" version="1.1" shape-rendering="geometricPrecision" text-rendering="geometricPrecision" image-rendering="optimizeQuality" fill-rule="evenodd" clip-rule="evenodd"
viewBox="0 0 4671 3321"
 xmlns:xlink="http://www.w3.org/1999/xlink">
 <g id="Layer_x0020_1">
  <metadata id="CorelCorpID_0Corel-Layer"/>
  <g id="_1435902192">
   <path fill="#EF182D" fill-rule="nonzero" d="M3397 2089c-1115,-197 -1917,322 -2534,1118 0,0 -751,-341 -749,-955 3,-728 737,-710 983,-554 0,0 -161,-981 658,-1440 866,-486 1819,355 1840,1234 0,0 1276,-168 889,1084 0,0 -477,-379 -1087,-487z"/>
   <path fill="#440203" fill-rule="nonzero" d="M739 1627c-110,0 -226,22 -327,77 -183,100 -280,290 -282,548 -2,555 634,888 728,934 722,-924 1553,-1288 2542,-1113 540,95 980,405 1075,476 106,-356 84,-627 -67,-806 -256,-304 -806,-235 -811,-235 -5,1 -9,0 -13,-3 -3,-3 -5,-8 -5,-12 -12,-478 -307,-963 -735,-1207 -354,-201 -738,-207 -1081,-14 -799,448 -651,1414 -649,1423 1,7 -2,13 -8,17 -5,3 -12,3 -17,0 -76,-48 -208,-85 -350,-85zm124 1596c-2,0 -5,0 -7,-1 -7,-4 -761,-353 -758,-970 1,-343 163,-502 298,-576 218,-120 513,-98 681,-8 -18,-177 -64,-1013 670,-1425 354,-198 749,-193 1114,15 432,246 731,733 750,1216 100,-10 578,-41 822,248 162,191 184,480 67,859 -2,5 -6,9 -11,11 -5,2 -11,0 -15,-3 -5,-4 -481,-378 -1079,-484 -980,-173 -1804,190 -2519,1112 -3,4 -8,6 -13,6z"/>
   <path fill="#F57481" fill-rule="nonzero" d="M421 2874c-156,-155 -292,-365 -291,-622 2,-258 99,-448 282,-548 101,-55 217,-77 327,-77 142,0 274,37 350,85 2,1 5,2 8,2 4,0 7,-1 9,-2 6,-4 9,-10 8,-17 -2,-9 -150,-975 649,-1423 167,-94 344,-141 523,-141 188,0 377,52 558,155 428,244 723,729 735,1207 0,4 2,9 5,12 3,2 7,3 11,3 1,0 1,0 2,0 2,0 57,-7 139,-7 181,0 496,33 672,242 151,179 173,450 67,806 -21,-16 -59,-43 -111,-77 52,-733 -732,-775 -916,-775 -24,0 -38,0 -38,0 -15,-629 -504,-1184 -1095,-1184 -165,0 -338,44 -511,141 -740,415 -495,1351 -488,1375 -84,-52 -244,-96 -412,-96 -287,0 -600,127 -602,547 -1,149 48,281 119,394z"/>
   <path fill="#8F6768" fill-rule="nonzero" d="M469 2943c-181,-162 -356,-394 -355,-691 2,-489 334,-642 627,-642 142,0 276,37 356,88 0,0 -161,-981 658,-1440 176,-99 355,-143 530,-143 684,0 1293,676 1310,1377 0,0 57,-8 144,-8 322,0 1050,105 745,1092 0,0 -44,-35 -122,-86 1,-6 1,-12 2,-18 52,34 90,61 111,77 106,-356 84,-627 -67,-806 -176,-209 -491,-242 -672,-242 -82,0 -137,7 -139,7 -1,0 -1,0 -2,0 -4,0 -8,-1 -11,-3 -3,-3 -5,-8 -5,-12 -12,-478 -307,-963 -735,-1207 -181,-103 -370,-155 -558,-155 -179,0 -356,47 -523,141 -799,448 -651,1414 -649,1423 1,7 -2,13 -8,17 -2,1 -5,2 -9,2 -3,0 -6,-1 -8,-2 -76,-48 -208,-85 -350,-85 -110,0 -226,22 -327,77 -183,100 -280,290 -282,548 -1,257 135,467 291,622 15,24 31,47 48,69z"/>
   <path fill="#440203" fill-rule="nonzero" d="M740 1724c-94,0 -195,19 -281,66 -152,83 -230,239 -231,463 -1,421 425,707 604,809 734,-908 1581,-1263 2585,-1085 439,77 808,286 999,411 55,-256 27,-451 -82,-581 -221,-263 -719,-202 -724,-202 -32,5 -65,-5 -89,-26 -25,-21 -39,-52 -40,-84 -11,-445 -286,-896 -685,-1124 -323,-184 -673,-189 -985,-14 -740,416 -602,1314 -601,1323 7,44 -12,89 -50,113 -37,25 -86,26 -124,1 -62,-39 -174,-70 -296,-70zm123 1597c-16,0 -32,-3 -47,-10 -34,-16 -819,-380 -816,-1060 2,-390 191,-575 349,-661 194,-106 434,-115 623,-66 -3,-330 78,-1002 727,-1366 385,-216 815,-210 1210,15 431,245 738,716 792,1198 197,-5 583,23 807,288 184,218 213,538 85,951 -11,36 -39,64 -75,75 -36,12 -75,4 -105,-19 -4,-4 -463,-363 -1035,-465 -941,-166 -1734,186 -2425,1076 -22,28 -56,44 -90,44z"/>
  </g>
 </g>
</svg>
