<?xml version="1.0" encoding="UTF-8"?>
<!DOCTYPE svg PUBLIC "-//W3C//DTD SVG 1.1//EN" "http://www.w3.org/Graphics/SVG/1.1/DTD/svg11.dtd">
<!-- Creator: CorelDRAW X7 -->
<svg xmlns="http://www.w3.org/2000/svg" xml:space="preserve" width="26.1108mm" height="13.0022mm" version="1.1" shape-rendering="geometricPrecision" text-rendering="geometricPrecision" image-rendering="optimizeQuality" fill-rule="evenodd" clip-rule="evenodd"
viewBox="0 0 9074 4518"
 xmlns:xlink="http://www.w3.org/1999/xlink">
 <g id="Layer_x0020_1">
  <metadata id="CorelCorpID_0Corel-Layer"/>
  <g id="_1435941136">
   <g>
    <g>
     <path fill="none" fill-rule="nonzero" stroke="#440203" stroke-width="695.036" d="M5495 2839c53,-28 115,-31 175,-36 573,-49 1148,-369 1606,-802 -126,-211 -214,-552 -258,-732 -44,-174 -71,-362 -9,-531 29,-79 101,-161 183,-140 50,13 83,63 96,113 34,136 18,263 77,396 44,102 117,326 329,398 6,2 11,4 16,6 102,-138 191,-281 265,-424 143,-277 160,-691 467,-738 151,-23 225,180 220,334 -22,597 -330,1153 -721,1605 -180,208 -377,398 -581,583 69,29 138,55 222,63 220,20 446,-18 647,-109 82,-38 162,-85 252,-98 89,-12 192,19 231,101 52,110 -40,234 -135,310 -288,233 -659,344 -1029,373 -288,23 -577,-1 -864,-40 -16,15 -33,30 -49,45 -261,240 -276,895 -669,563 -236,-199 -423,-455 -542,-740 -71,-171 -94,-414 71,-500z"/>
     <path id="1" fill="#A5765B" fill-rule="nonzero" d="M5495 2839c53,-28 115,-31 175,-36 573,-49 1148,-369 1606,-802 -126,-211 -214,-552 -258,-732 -44,-174 -71,-362 -9,-531 29,-79 101,-161 183,-140 50,13 83,63 96,113 34,136 18,263 77,396 44,102 117,326 329,398 6,2 11,4 16,6 102,-138 191,-281 265,-424 143,-277 160,-691 467,-738 151,-23 225,180 220,334 -22,597 -330,1153 -721,1605 -180,208 -377,398 -581,583 69,29 138,55 222,63 220,20 446,-18 647,-109 82,-38 162,-85 252,-98 89,-12 192,19 231,101 52,110 -40,234 -135,310 -288,233 -659,344 -1029,373 -288,23 -577,-1 -864,-40 -16,15 -33,30 -49,45 -261,240 -276,895 -669,563 -236,-199 -423,-455 -542,-740 -71,-171 -94,-414 71,-500z"/>
    </g>
    <path fill="#966A54" fill-rule="nonzero" d="M5385 3194c119,285 306,541 542,741 393,332 408,-323 669,-563 16,-15 33,-30 50,-46 287,39 575,63 864,41 369,-29 740,-141 1028,-373 65,-53 128,-127 145,-204 11,11 19,24 26,38 52,110 -40,234 -135,310 -288,233 -659,344 -1028,373 -288,23 -578,-1 -865,-40 -16,15 -33,30 -49,45 -261,240 -276,895 -669,563 -235,-199 -423,-455 -542,-740 -22,-54 -40,-116 -48,-177 4,11 8,22 12,32z"/>
    <path fill="#966A54" fill-rule="nonzero" d="M7938 2288c-149,172 -411,428 -578,583 -55,-21 -114,-33 -199,0 203,-185 561,-519 741,-727 391,-453 699,-1008 721,-1606 0,-20 0,-41 -2,-62 28,63 41,140 38,207 -22,597 -329,1153 -721,1605z"/>
    <path fill="#BD9B87" fill-rule="nonzero" d="M7294 1243c-17,0 -36,-8 -50,-20 -45,-37 -65,-96 -81,-152 -24,-81 -46,-164 -44,-248 0,-37 13,-134 57,-149 6,-2 12,-3 18,-3 49,0 50,86 49,120 -5,89 10,179 44,261 16,38 36,75 46,115 6,22 6,50 -11,65 -7,8 -17,11 -28,11z"/>
    <path fill="#BD9B87" fill-rule="nonzero" d="M8036 3096c-9,0 -17,-1 -26,-3 -23,-6 -44,-22 -49,-45 -6,-25 10,-51 31,-65 22,-14 48,-20 73,-25 128,-29 253,-71 372,-126 24,-11 70,-41 106,-41 10,0 20,3 28,10 45,38 -18,95 -49,115 -133,88 -285,148 -443,175 -14,3 -29,5 -43,5z"/>
    <path fill="#BD9B87" fill-rule="nonzero" d="M8226 1189c-41,0 -75,-46 -75,-90 0,-48 27,-91 51,-133 53,-93 90,-195 110,-299 12,-66 18,-147 64,-199 20,-23 39,-33 56,-33 40,0 68,52 65,107 -12,182 -64,361 -150,521 -17,35 -38,68 -64,96 -12,12 -26,24 -43,28 -5,1 -9,2 -14,2z"/>
   </g>
   <g id="_1435900496">
    <g>
     <path fill="none" fill-rule="nonzero" stroke="#440203" stroke-width="695.036" d="M3579 2839c-53,-28 -115,-31 -175,-36 -573,-49 -1148,-369 -1606,-802 126,-211 214,-552 258,-732 44,-174 71,-362 9,-531 -29,-79 -101,-161 -183,-140 -50,13 -83,63 -96,113 -34,136 -18,263 -77,396 -44,102 -117,326 -329,398 -6,2 -11,4 -16,6 -102,-138 -191,-281 -265,-424 -143,-277 -160,-691 -467,-738 -151,-23 -225,180 -220,334 22,597 330,1153 721,1605 180,208 377,398 581,583 -69,29 -138,55 -222,63 -220,20 -446,-18 -647,-109 -82,-38 -162,-85 -252,-98 -89,-12 -193,19 -231,101 -52,110 40,234 135,310 288,233 659,344 1029,373 288,23 577,-1 864,-40 16,15 33,30 49,45 261,240 276,895 669,563 236,-199 423,-455 542,-740 71,-171 94,-414 -71,-500z"/>
     <path id="1" fill="#A5765B" fill-rule="nonzero" d="M3579 2839c-53,-28 -115,-31 -175,-36 -573,-49 -1148,-369 -1606,-802 126,-211 214,-552 258,-732 44,-174 71,-362 9,-531 -29,-79 -101,-161 -183,-140 -50,13 -83,63 -96,113 -34,136 -18,263 -77,396 -44,102 -117,326 -329,398 -6,2 -11,4 -16,6 -102,-138 -191,-281 -265,-424 -143,-277 -160,-691 -467,-738 -151,-23 -225,180 -220,334 22,597 330,1153 721,1605 180,208 377,398 581,583 -69,29 -138,55 -222,63 -220,20 -446,-18 -647,-109 -82,-38 -162,-85 -252,-98 -89,-12 -193,19 -231,101 -52,110 40,234 135,310 288,233 659,344 1029,373 288,23 577,-1 864,-40 16,15 33,30 49,45 261,240 276,895 669,563 236,-199 423,-455 542,-740 71,-171 94,-414 -71,-500z"/>
    </g>
    <path fill="#966A54" fill-rule="nonzero" d="M3689 3194c-119,285 -306,541 -542,741 -393,332 -408,-323 -669,-563 -16,-15 -33,-30 -50,-46 -287,39 -575,63 -864,41 -369,-29 -740,-141 -1028,-373 -65,-53 -128,-127 -145,-204 -11,11 -19,24 -26,38 -52,110 40,234 135,310 288,233 659,344 1028,373 288,23 578,-1 865,-40 16,15 33,30 49,45 261,240 276,895 669,563 235,-199 423,-455 542,-740 22,-54 40,-116 48,-177 -4,11 -8,22 -12,32z"/>
    <path fill="#966A54" fill-rule="nonzero" d="M1136 2288c148,172 411,428 578,583 55,-21 114,-33 199,0 -203,-185 -561,-519 -741,-727 -391,-453 -699,-1008 -721,-1606 0,-20 0,-41 2,-62 -28,63 -41,140 -38,207 22,597 329,1153 721,1605z"/>
    <path fill="#BD9B87" fill-rule="nonzero" d="M1780 1243c17,0 36,-8 50,-20 45,-37 65,-96 81,-152 24,-81 46,-164 44,-248 0,-37 -13,-134 -57,-149 -6,-2 -12,-3 -18,-3 -49,0 -50,86 -49,120 5,89 -10,179 -44,261 -16,38 -36,75 -46,115 -6,22 -6,50 11,65 7,8 17,11 28,11z"/>
    <path fill="#BD9B87" fill-rule="nonzero" d="M1038 3096c9,0 17,-1 26,-3 23,-6 44,-22 49,-45 6,-25 -10,-51 -31,-65 -22,-14 -48,-20 -73,-25 -128,-29 -253,-71 -372,-126 -24,-11 -70,-41 -106,-41 -10,0 -20,3 -28,10 -45,38 18,95 49,115 133,88 285,148 443,175 14,3 29,5 43,5z"/>
    <path fill="#BD9B87" fill-rule="nonzero" d="M848 1189c41,0 75,-46 75,-90 0,-48 -27,-91 -51,-133 -53,-93 -90,-195 -110,-299 -13,-66 -18,-147 -64,-199 -20,-23 -39,-33 -56,-33 -40,0 -68,52 -65,107 12,182 64,361 150,521 17,35 38,68 64,96 12,12 26,24 43,28 5,1 9,2 14,2z"/>
   </g>
  </g>
 </g>
</svg>
