<?xml version="1.0" encoding="UTF-8"?>
<!DOCTYPE svg PUBLIC "-//W3C//DTD SVG 1.1//EN" "http://www.w3.org/Graphics/SVG/1.1/DTD/svg11.dtd">
<!-- Creator: CorelDRAW X7 -->
<svg xmlns="http://www.w3.org/2000/svg" xml:space="preserve" width="8.1705mm" height="5.507mm" version="1.1" shape-rendering="geometricPrecision" text-rendering="geometricPrecision" image-rendering="optimizeQuality" fill-rule="evenodd" clip-rule="evenodd"
viewBox="0 0 850 573"
 xmlns:xlink="http://www.w3.org/1999/xlink">
 <g id="Layer_x0020_1">
  <metadata id="CorelCorpID_0Corel-Layer"/>
  <g id="_1435909040">
   <path fill="#FCA110" fill-rule="nonzero" d="M813 346c0,105 -174,190 -388,190 -214,0 -388,-85 -388,-190 0,-104 174,-309 388,-309 214,0 388,205 388,309z"/>
   <path fill="#440203" fill-rule="nonzero" d="M425 43c-209,0 -382,201 -382,303 0,101 171,184 382,184 211,0 382,-83 382,-184 0,-102 -173,-303 -382,-303zm0 499c-217,0 -394,-88 -394,-196 0,-105 171,-315 394,-315 224,0 394,210 394,315 0,108 -177,196 -394,196z"/>
   <path fill="#C4710C" fill-rule="nonzero" d="M425 530c-211,0 -382,-83 -382,-184 0,-18 6,-39 16,-62 8,8 19,16 33,23 0,-1 1,-1 2,-2 68,54 191,91 331,91 140,0 263,-37 331,-91 1,1 2,1 3,2 13,-7 24,-15 33,-23 10,23 15,44 15,62 0,101 -171,184 -382,184z"/>
   <path fill="#440203" fill-rule="nonzero" d="M425 536c-214,0 -388,-85 -388,-190 0,-19 6,-42 17,-66 2,1 3,3 5,4 -10,23 -16,44 -16,62 0,101 171,184 382,184 211,0 382,-83 382,-184 0,-18 -5,-39 -15,-62 1,-1 3,-3 4,-4 11,24 17,47 17,66 0,105 -174,190 -388,190z"/>
   <path fill="#FED088" fill-rule="nonzero" d="M756 305c-73,-83 -188,-157 -318,-162 -4,0 -9,0 -13,0 -4,0 -8,0 -13,0 -130,5 -245,79 -318,162 -12,-10 -22,-20 -31,-31 52,-103 195,-231 362,-231 167,0 311,128 362,231 -8,11 -19,21 -31,31z"/>
   <path fill="#A28181" fill-rule="nonzero" d="M54 280c0,0 0,0 0,0 48,-105 190,-236 359,-242 4,-1 8,-1 12,-1 4,0 8,0 12,1 169,6 311,137 359,242 0,0 0,0 0,0 -2,-4 -3,-7 -5,-11 -1,2 -3,4 -4,5 -51,-103 -195,-231 -362,-231 -167,0 -310,128 -362,231 -1,-1 -2,-3 -4,-5 -1,4 -3,7 -5,11z"/>
   <path fill="#E2B886" fill-rule="nonzero" d="M759 307c-1,-1 -2,-1 -3,-2 12,-10 23,-20 31,-31 2,4 3,7 5,10 -9,8 -20,16 -33,23zm-667 0c-14,-7 -25,-15 -33,-23 1,-3 3,-6 4,-10 9,11 19,21 31,31 -1,1 -2,1 -2,2z"/>
   <path fill="#440203" fill-rule="nonzero" d="M425 75c-199,0 -350,192 -350,271 0,72 144,152 350,152 207,0 351,-80 351,-152 0,-79 -152,-271 -351,-271zm0 498c-238,0 -425,-100 -425,-227 0,-130 199,-346 425,-346 227,0 425,216 425,346 0,127 -187,227 -425,227z"/>
  </g>
 </g>
</svg>
