<?xml version="1.0" encoding="UTF-8"?>
<!DOCTYPE svg PUBLIC "-//W3C//DTD SVG 1.1//EN" "http://www.w3.org/Graphics/SVG/1.1/DTD/svg11.dtd">
<!-- Creator: CorelDRAW X7 -->
<svg xmlns="http://www.w3.org/2000/svg" xml:space="preserve" width="8.9396mm" height="5.7341mm" version="1.1" shape-rendering="geometricPrecision" text-rendering="geometricPrecision" image-rendering="optimizeQuality" fill-rule="evenodd" clip-rule="evenodd"
viewBox="0 0 1093 701"
 xmlns:xlink="http://www.w3.org/1999/xlink">
 <g id="Layer_x0020_1">
  <metadata id="CorelCorpID_0Corel-Layer"/>
  <g id="_1435938352">
   <path fill="#FFC5EA" fill-rule="nonzero" d="M1049 407c-7,151 -238,263 -515,249 -278,-13 -497,-146 -490,-297 7,-152 222,-328 500,-314 277,13 513,211 505,362z"/>
   <path fill="#FE6DCB" fill-rule="nonzero" d="M327 509c-259,-43 -179,-267 -149,-359 -81,60 -130,137 -134,209 -7,151 212,284 490,297 277,14 508,-98 515,-249 3,-56 -27,-118 -80,-175 -33,199 -72,373 -642,277z"/>
   <path fill="#FE6DCB" fill-rule="nonzero" d="M544 45c-278,-14 -493,162 -500,314 -1,20 2,41 10,60 26,-145 233,-303 496,-290 241,12 450,162 496,300 2,-7 3,-14 3,-22 8,-151 -228,-349 -505,-362z"/>
   <path fill="#440203" fill-rule="nonzero" d="M393 101c-64,14 -124,40 -176,75 -76,53 -126,124 -129,185 -3,55 40,114 117,161 86,52 204,84 331,90 127,7 247,-14 338,-58 81,-39 129,-94 131,-149l0 0c3,-59 -46,-134 -128,-196 -94,-71 -216,-115 -335,-120 -51,-3 -101,1 -149,12zm377 580c-74,17 -155,23 -239,19 -141,-7 -273,-43 -372,-103 -107,-65 -163,-151 -159,-241 5,-89 67,-183 168,-252 106,-73 241,-110 378,-103 136,6 276,57 384,138 106,81 167,182 163,270 -4,90 -69,169 -181,224 -43,20 -91,37 -142,48z"/>
   <path fill="#440203" fill-rule="nonzero" d="M397 337c-18,38 -58,57 -90,42 -33,-15 -44,-58 -27,-96 18,-39 59,-58 91,-43 32,15 44,58 26,97z"/>
   <path fill="#440203" fill-rule="nonzero" d="M642 329c14,41 53,64 88,52 34,-12 50,-55 36,-95 -15,-41 -54,-65 -88,-53 -35,12 -51,55 -36,96z"/>
  </g>
 </g>
</svg>
