<?xml version="1.0" encoding="UTF-8"?>
<!DOCTYPE svg PUBLIC "-//W3C//DTD SVG 1.1//EN" "http://www.w3.org/Graphics/SVG/1.1/DTD/svg11.dtd">
<!-- Creator: CorelDRAW X7 -->
<svg xmlns="http://www.w3.org/2000/svg" xml:space="preserve" width="8.2595mm" height="4.7863mm" version="1.1" shape-rendering="geometricPrecision" text-rendering="geometricPrecision" image-rendering="optimizeQuality" fill-rule="evenodd" clip-rule="evenodd"
viewBox="0 0 968 561"
 xmlns:xlink="http://www.w3.org/1999/xlink">
 <g id="Layer_x0020_1">
  <metadata id="CorelCorpID_0Corel-Layer"/>
  <g id="_1447051488">
   <path fill="#F7428B" fill-rule="nonzero" d="M94 47c-38,-17 -77,18 -66,57 50,163 212,430 479,431 312,0 427,-298 435,-459 1,-37 -39,-62 -71,-43 -118,67 -265,107 -367,110 -125,4 -270,-32 -410,-96z"/>
   <path fill="#440203" fill-rule="nonzero" d="M74 69c-7,0 -12,3 -14,5 -2,2 -10,10 -6,23 43,142 193,411 453,411 0,0 0,0 0,0 283,0 401,-265 408,-433 1,-11 -7,-17 -10,-19 -3,-2 -11,-6 -21,-1 -114,66 -263,111 -380,114 -6,1 -13,1 -20,1 -121,0 -260,-34 -401,-99 -3,-2 -6,-2 -9,-2zm433 492c0,0 0,0 0,0 -67,0 -132,-16 -193,-48 -52,-27 -102,-66 -147,-115 -72,-78 -133,-185 -164,-286 -8,-28 0,-58 22,-77 23,-20 53,-24 80,-12l0 0c140,64 281,98 398,94 89,-3 233,-37 355,-107 23,-14 51,-13 74,1 23,14 37,39 36,66 -4,81 -34,203 -108,304 -60,82 -169,180 -353,180z"/>
   <path fill="white" fill-rule="nonzero" d="M883 28l-35 160c-2,11 -13,18 -24,16l-105 -15c-9,-1 -19,2 -25,9l-49 58c-12,15 -32,19 -49,12l-105 -47c-7,-3 -16,-3 -23,1l-93 45c-17,8 -37,5 -50,-9l-49 -50c-9,-8 -22,-10 -32,-5l-41 20c-21,11 -48,3 -59,-18l-89 -159c12,-5 25,-5 39,1 140,64 284,100 409,96 103,-3 250,-43 368,-110 4,-3 8,-4 12,-5z"/>
   <path fill="#000072" fill-rule="nonzero" d="M256 196c8,0 16,3 23,9l49 50c11,12 30,16 45,8l93 -45c8,-4 18,-4 27,-1l104 47c16,7 34,3 45,-10l49 -58c7,-9 18,-13 29,-11l105 15c9,1 17,-4 19,-13l33 -153c-1,1 -3,1 -4,2 -110,63 -258,108 -369,111 -123,4 -265,-29 -412,-96 -10,-5 -21,-5 -31,-2l86 154c11,19 35,26 55,16l40 -20c4,-2 9,-3 14,-3zm100 79c-13,0 -25,-5 -34,-14l-49 -50c-8,-7 -18,-9 -28,-4l-40 20c-23,12 -52,3 -65,-20l-91 -162 5 -2c13,-6 28,-6 41,0 146,67 287,100 408,96 111,-4 257,-48 366,-110 4,-2 8,-4 13,-5l6 -2 -36 167c-3,13 -15,21 -28,19l-105 -15c-8,-1 -16,2 -22,8l-49 58c-13,16 -35,21 -54,12l-105 -46c-6,-3 -13,-3 -19,0l-94 46c-6,3 -13,4 -20,4z"/>
   <path fill="#440203" fill-rule="nonzero" d="M884 55l0 0 0 0zm-404 138c7,0 15,1 22,4l104 47c7,2 14,1 19,-5l49 -58c12,-14 31,-21 49,-18l100 15 23 -102c-108,54 -238,90 -342,93 -120,4 -258,-26 -400,-88l63 111c4,9 15,12 25,8l40 -21c21,-10 46,-6 62,11l49 50c6,5 13,6 20,3l93 -45c8,-4 16,-5 24,-5zm-124 105c-19,0 -37,-8 -50,-21l-49 -50c-1,-1 -1,-1 -2,-1l-40 21c-34,17 -76,4 -94,-29l-83 -148c-6,-11 -6,-23 -1,-34 6,-10 16,-17 27,-19 14,-2 28,0 41,6 140,64 281,98 398,94 89,-3 233,-37 355,-107 15,-9 31,-2 37,2l18 9 -39 172c-6,25 -29,41 -54,37l-104 -15c-1,0 -1,0 -2,0l-49 58c-19,23 -52,31 -80,19l-105 -47c0,0 0,0 -1,0l-93 46c-10,4 -20,7 -30,7z"/>
   <path fill="white" fill-rule="nonzero" d="M850 349c-36,54 -84,103 -146,137 -55,30 -120,49 -197,49 -88,-1 -164,-29 -229,-74l0 0c-40,-28 -76,-62 -107,-98 19,-17 35,-33 58,-58 6,-7 16,-4 24,5 28,37 43,53 75,81 7,6 16,8 23,4 21,-12 32,-19 51,-35 12,-9 28,-8 40,4 29,28 45,40 79,60 7,4 14,4 20,0 30,-18 45,-30 71,-55 12,-11 28,-12 40,-3 18,13 28,19 48,30 9,4 20,0 27,-10 11,-15 16,-23 26,-39 13,-22 34,-32 51,-22 18,10 32,18 46,24z"/>
   <path fill="#000072" fill-rule="nonzero" d="M281 458c70,48 146,72 226,72 0,0 0,0 0,0 72,0 138,-16 195,-47 55,-30 103,-75 142,-132 -12,-6 -25,-13 -42,-23 -15,-8 -34,1 -46,21 -10,17 -15,25 -25,40 -9,11 -22,16 -33,10 -20,-10 -30,-16 -48,-30 -11,-8 -24,-7 -35,3 -27,26 -42,37 -72,56 -7,4 -16,4 -24,0 -34,-20 -50,-33 -80,-61 -11,-10 -24,-12 -34,-3 -20,15 -31,23 -52,35 -9,4 -19,3 -28,-5 -32,-28 -48,-45 -76,-81 -3,-5 -8,-7 -11,-8 -3,0 -5,1 -6,3 -23,24 -38,40 -56,55 33,38 68,69 104,94 0,1 1,1 1,1zm226 81c0,0 0,0 0,0 -82,0 -159,-25 -230,-74l0 0 -1 -1c-38,-26 -75,-59 -108,-98l-3 -4 3 -2c18,-16 34,-32 58,-58 3,-3 7,-5 12,-5 6,0 13,4 18,11 28,36 43,52 75,80 6,5 12,6 18,4 21,-12 31,-19 51,-35 13,-11 31,-9 45,4 29,28 45,40 78,60 5,3 11,3 16,0 30,-18 44,-29 71,-55 13,-12 31,-14 44,-4 19,14 28,20 48,30 7,4 16,0 22,-8 10,-15 15,-23 25,-40 15,-24 39,-33 57,-23 19,11 33,18 46,24l5 2 -3 4c-40,61 -90,107 -148,139 -59,32 -126,49 -199,49z"/>
   <path fill="#440203" fill-rule="nonzero" d="M248 323l0 0 0 0zm-17 3l0 0zm296 76l0 0 0 0zm-264 81l1 0 -1 0 0 0zm30 -44c66,46 138,69 214,69 0,0 0,0 0,0 68,0 130,-15 184,-45 46,-24 86,-60 120,-104 -6,-4 -13,-7 -20,-12 -2,0 -9,2 -16,13 -9,16 -15,25 -26,41 -15,21 -40,29 -61,18 -21,-11 -32,-18 -52,-32 -1,-1 -2,-2 -5,1 -29,27 -45,39 -77,59 -14,8 -31,8 -46,0l0 0c-36,-21 -53,-34 -84,-64 -4,-3 -5,-3 -5,-2 -21,17 -33,24 -56,37 -16,9 -37,7 -52,-7 -32,-27 -48,-44 -73,-77 -12,12 -21,22 -30,31 26,29 55,53 84,74 1,0 1,0 1,0l0 0zm214 122c0,0 0,0 0,0 -84,0 -164,-25 -237,-74l0 0 -7 -4c-40,-28 -77,-62 -112,-103l-17 -20 19 -17c18,-16 33,-30 57,-56 7,-8 18,-12 29,-12 13,1 25,8 34,19 27,34 41,49 70,75 17,-9 26,-16 43,-29 22,-18 52,-16 74,5 27,26 42,37 71,54 26,-15 39,-26 63,-49 22,-20 51,-22 74,-6 15,12 24,17 39,25 9,-13 14,-20 23,-36 21,-34 58,-48 87,-31 18,10 31,17 44,23l29 12 -18 26c-42,64 -94,113 -155,146 -62,35 -133,52 -210,52z"/>
  </g>
 </g>
</svg>
