<?xml version="1.0" encoding="UTF-8"?>
<!DOCTYPE svg PUBLIC "-//W3C//DTD SVG 1.1//EN" "http://www.w3.org/Graphics/SVG/1.1/DTD/svg11.dtd">
<!-- Creator: CorelDRAW X7 -->
<svg xmlns="http://www.w3.org/2000/svg" xml:space="preserve" width="14.6612mm" height="6.9778mm" version="1.1" shape-rendering="geometricPrecision" text-rendering="geometricPrecision" image-rendering="optimizeQuality" fill-rule="evenodd" clip-rule="evenodd"
viewBox="0 0 2108 1003"
 xmlns:xlink="http://www.w3.org/1999/xlink">
 <defs>
   <clipPath id="id0" clip-rule="nonzero">
    <path d="M1964 785c1,-2 1,-3 1,-4 2,-21 -49,-83 -251,-188 -123,-64 -284,-133 -465,-201 -156,-59 -318,-113 -468,-158 -10,-3 -19,-5 -29,-8l-9 -3c-45,-13 -89,-24 -129,-35 -76,-19 -140,-33 -191,-42l-1 0c-2,0 -5,-1 -7,-1 -1,0 -3,0 -4,0 -111,-12 -248,43 -266,240 -4,41 -1,80 7,117 2,8 4,16 6,24l2 5c2,6 4,11 6,17l3 7c2,4 4,9 6,13l2 5c3,6 6,10 8,15l6 9c2,3 3,5 4,7l2 3 2 2c7,11 15,21 24,31l3 3c3,3 6,7 10,10l1 1 2 2c4,4 7,7 11,11l2 2c5,3 9,7 14,10l3 3c3,2 7,4 10,7l4 3c4,2 7,4 10,6l5 3c3,2 6,4 10,6 0,0 3,1 3,2 5,2 9,4 13,6l5 2c2,1 5,3 8,4l5 2c2,1 5,2 7,3l5 1c3,1 6,2 9,3 1,1 4,1 5,2 1,0 1,0 1,0 82,22 201,45 336,65 155,23 325,40 491,51 538,36 753,-19 768,-63z"/>
   </clipPath>
 </defs>
 <g id="Layer_x0020_1">
  <metadata id="CorelCorpID_0Corel-Layer"/>
  <path fill="#440203" fill-rule="nonzero" d="M2103 821l-3 9c-24,73 -140,146 -367,165 -127,11 -306,12 -546,-3 -83,-6 -169,-13 -255,-22 -88,-9 -172,-20 -248,-31 -69,-10 -134,-21 -194,-33 -61,-11 -115,-23 -158,-35 -20,-7 -36,-12 -56,-21l-2 0 -4 -2 -1 -1 -7 -3 -17 -8 -7 -4 0 0c-7,-4 -14,-8 -20,-12l-1 0 -4 -4 -3 -1c-10,-7 -20,-13 -31,-21l1 0 -13 -10c-11,-9 -20,-17 -30,-27l-3 -2 0 -1c-6,-6 -12,-12 -17,-18l0 0c-9,-10 -15,-17 -19,-22 -5,-6 -11,-14 -17,-23l-2 -3 0 0 -3 -3 0 -1 -1 -3 -3 -3c-4,-6 -7,-12 -11,-18 -7,-13 -14,-26 -20,-39l0 -3c-3,-5 -6,-12 -8,-17 -5,-14 -6,-17 -7,-20l0 0 -5 -12 -5 -20c-3,-10 -4,-16 -5,-20 -5,-24 -9,-50 -10,-76 -2,-25 -1,-52 1,-81l0 -2 1 -10c16,-138 76,-231 155,-289 80,-59 175,-77 261,-69 1,0 6,0 7,0l0 0c6,1 13,2 19,3l1 0c31,5 62,11 93,18 25,5 62,14 110,26l0 0c22,6 44,11 65,17l0 1 68 18 1 1 8 2 0 0 4 1c3,1 -8,-2 26,8 76,22 156,47 238,75 82,27 163,56 241,85l-1 1c92,34 180,69 261,105 84,36 158,71 220,103 93,48 157,88 201,121l0 0c102,77 131,156 127,206 -1,11 -3,17 -5,28zm-469 -108c-57,-29 -120,-59 -188,-88 -75,-32 -158,-66 -247,-99l-1 0c-77,-29 -155,-57 -230,-82 -76,-26 -153,-50 -228,-72 -17,-5 -4,-1 -24,-7l-3 -1 -1 0 -8 -3 0 1 -65 -19 -1 0c-21,-6 -42,-11 -60,-16l0 0c-27,-7 -61,-15 -100,-23 -32,-8 -57,-13 -77,-16l2 0 -5 0 0 0 0 0c-1,0 0,0 0,0 -2,-1 -5,-1 -7,-1l0 0c-22,-2 -46,2 -63,15 -19,14 -34,42 -39,90l-1 7 0 0c-1,12 -1,25 -1,38 1,11 3,22 5,33l1 5c1,5 0,1 1,4l0 1c0,0 0,-1 1,3l2 6 0 0c2,5 1,2 2,4l4 10 0 0 2 5 4 7 0 0 8 13 12 16 0 0 1 0c2,3 5,6 7,8l1 0 0 1 0 0c4,4 9,7 13,11l0 0 1 1 0 0c5,3 10,7 15,10l-1 0 2 1 1 0c6,4 12,7 18,10l1 0 4 2 0 0c5,2 10,4 16,6 38,10 84,20 136,30 53,11 115,21 182,31 79,11 158,21 235,29 80,9 162,16 244,21 179,12 320,13 429,8zm-1233 -425l-3 0 3 0z"/>
  <path fill="#4D2E0E" fill-rule="nonzero" d="M1964 785c1,-2 1,-3 1,-4 2,-21 -49,-83 -251,-188 -123,-64 -284,-133 -465,-201 -156,-59 -318,-113 -468,-158 -10,-3 -19,-5 -29,-8l-9 -3c-45,-13 -89,-24 -129,-35 -76,-19 -140,-33 -191,-42l-1 0c-2,0 -5,-1 -7,-1 -1,0 -3,0 -4,0 -111,-12 -248,43 -266,240 -4,41 -1,80 7,117 2,8 4,16 6,24l2 5c2,6 4,11 6,17l3 7c2,4 4,9 6,13l2 5c3,6 6,10 8,15l6 9c2,3 3,5 4,7l2 3 2 2c7,11 15,21 24,31l3 3c3,3 6,7 10,10l1 1 2 2c4,4 7,7 11,11l2 2c5,3 9,7 14,10l3 3c3,2 7,4 10,7l4 3c4,2 7,4 10,6l5 3c3,2 6,4 10,6 0,0 3,1 3,2 5,2 9,4 13,6l5 2c2,1 5,3 8,4l5 2c2,1 5,2 7,3l5 1c3,1 6,2 9,3 1,1 4,1 5,2 1,0 1,0 1,0 82,22 201,45 336,65 155,23 325,40 491,51 538,36 753,-19 768,-63z"/>
  <g clip-path="url(#id0)">
   <g id="_1460629152">
    <path id="1" fill="#C7871E" fill-rule="nonzero" d="M1933 866c-264,-146 -503,-261 -782,-359 -281,-99 -607,-181 -1045,-261l4 -170c456,84 799,170 1098,275 302,106 556,228 835,382l-110 133z"/>
   </g>
  </g>
  <path fill="none" fill-rule="nonzero" d="M1964 785c1,-2 1,-3 1,-4 2,-21 -49,-83 -251,-188 -123,-64 -284,-133 -465,-201 -156,-59 -318,-113 -468,-158 -10,-3 -19,-5 -29,-8l-9 -3c-45,-13 -89,-24 -129,-35 -76,-19 -140,-33 -191,-42l-1 0c-2,0 -5,-1 -7,-1 -1,0 -3,0 -4,0 -111,-12 -248,43 -266,240 -4,41 -1,80 7,117 2,8 4,16 6,24l2 5c2,6 4,11 6,17l3 7c2,4 4,9 6,13l2 5c3,6 6,10 8,15l6 9c2,3 3,5 4,7l2 3 2 2c7,11 15,21 24,31l3 3c3,3 6,7 10,10l1 1 2 2c4,4 7,7 11,11l2 2c5,3 9,7 14,10l3 3c3,2 7,4 10,7l4 3c4,2 7,4 10,6l5 3c3,2 6,4 10,6 0,0 3,1 3,2 5,2 9,4 13,6l5 2c2,1 5,3 8,4l5 2c2,1 5,2 7,3l5 1c3,1 6,2 9,3 1,1 4,1 5,2 1,0 1,0 1,0 82,22 201,45 336,65 155,23 325,40 491,51 538,36 753,-19 768,-63z"/>
 </g>
</svg>
